<?xml version="1.0" encoding="UTF-8" standalone="no"?>
<svg
   xmlns="http://www.w3.org/2000/svg"
   width="92.604019mm"
   height="131.21361mm"
   viewBox="0 0 92.60402 131.21361"
   version="1.1">
  <g id="earth">
    <ellipse style="fill:#0099dd" cx="46.268505" cy="43.706413" rx="43.660767" ry="43.65855" />
    <path d="m 49.503115,46.033274 c -0.704434,-0.872939 -1.410342,-1.760647 -2.002049,-2.614201 -0.769293,-1.109711 -1.419398,-2.151418 -1.889323,-2.991197 -0.469924,-0.83978 -0.75939,-1.478348 -0.807208,-1.780375 -0.04782,-0.302028 -0.669878,-1.018677 -1.566334,-1.891172 -0.896456,-0.872495 -2.067198,-1.899981 -3.210577,-2.824783 -1.143379,-0.924802 -2.260308,-1.747156 -3.048892,-2.206096 -0.394292,-0.229493 -0.706201,-0.368618 -0.898986,-0.384441 -0.192762,-0.01589 -0.265525,0.09147 -0.181575,0.354011 0.07196,0.225023 -0.07613,0.408646 -0.3281,0.540756 -0.251968,0.132119 -0.608895,0.212446 -0.953904,0.234254 -0.345006,0.0218 -0.678534,-0.01544 -0.885679,-0.121339 -0.207154,-0.105893 -0.28697,-0.280236 -0.125365,-0.531238 0.320628,-0.576808 1.006505,-0.985818 1.124657,-1.170786 0.118176,-0.184957 -0.331833,-0.145108 -2.282981,0.179047 -0.689589,0.232599 -1.141504,0.340354 -1.436887,0.364487 -0.295371,0.02414 -0.434317,-0.0355 -0.498202,-0.138102 -0.12776,-0.205229 0.0455,-0.582663 -0.132534,-0.804537 -0.356057,-0.443762 -2.053134,-2.437489 -2.480054,-2.727138 -0.213475,-0.144802 -0.141118,-0.811323 0.02754,-1.457207 0.168658,-0.645885 0.432863,-1.27088 0.601607,-1.33331 0.168748,-0.06244 -0.165992,-0.449741 -0.543422,-0.82164 -0.37743,-0.371899 -0.796925,-0.728838 -0.796925,-0.728838 L 26.74752,22.510562 c 0,0 0.796193,-0.613756 1.045004,-1.12944 0.06224,-0.128907 0.0906,-0.252319 0.06345,-0.357786 -0.02717,-0.10547 -0.109232,-0.193302 -0.267733,-0.25305 -0.316996,-0.119509 -0.938741,-0.12534 -2.032894,0.07168 -0.547074,0.09851 -0.974243,0.08668 -1.294746,-0.01054 -0.320495,-0.09724 -0.534231,-0.279124 -0.658634,-0.520866 -0.124422,-0.241715 -0.15851,-0.543455 -0.117337,-0.878404 0.04117,-0.334951 0.157125,-0.702847 0.33338,-1.079789 0.352583,-0.753852 0.944366,-1.541671 1.65427,-2.156017 0.354954,-0.307177 0.739322,-0.570777 1.137879,-0.766198 0.398558,-0.195421 0.811282,-0.322149 1.222942,-0.35457 0.823327,-0.06484 1.439799,-0.0086 1.901956,0.125131 0.462156,0.133734 0.770659,0.345619 0.97798,0.592612 0.207313,0.247011 0.313807,0.528756 0.372604,0.803741 0.05879,0.274982 0.06987,0.54259 0.08647,0.760255 0.0166,0.217659 0.06639,0.386416 0.152539,0.500412 0.08615,0.113995 0.208934,0.173356 0.367751,0.170567 0.317658,-0.0056 0.783449,-0.257974 1.4106,-0.809732 0.627155,-0.551765 2.221349,-1.685106 4.184371,-2.731136 0.981509,-0.523012 2.055856,-1.023838 3.146488,-1.419371 1.090635,-0.39554 2.198323,-0.685703 3.248183,-0.786402 2.099725,-0.201395 4.708734,-0.19202 6.690763,-0.365853 0.991009,-0.08692 1.825349,-0.220096 2.360487,-0.448069 0.267569,-0.113987 0.460716,-0.251488 0.561011,-0.419232 0.100282,-0.167749 0.108193,-0.365659 0.0057,-0.599498 C 52.889895,9.5136894 52.062068,8.3170553 51.22107,7.405298 50.800577,6.9494215 50.377837,6.564926 50.000402,6.319916 49.622969,6.074903 49.291575,5.9687939 49.057728,6.0712986 48.823885,6.1738091 48.249132,6.2833468 47.564005,6.3490099 46.878872,6.4146703 46.08374,6.437024 45.410172,6.3665238 44.736604,6.2960237 44.184,6.1326556 43.984841,5.8266784 c -0.09958,-0.1529885 -0.11101,-0.3422469 -0.0052,-0.5727262 0.105805,-0.2304806 0.328468,-0.5024577 0.697517,-0.8228417 1.476195,-1.2815341 2.59099,-2.0295774 3.476101,-2.3810519 0.442565,-0.1757333 0.827174,-0.2519969 1.17188,-0.2466504 0.3447,0.00534 0.650085,0.092193 0.930202,0.2443262 0.560233,0.3042681 1.36518,1.1412075 2.084386,1.8102735 0.359606,0.334534 0.69699,0.6276503 0.972124,0.7906185 0.275123,0.1629601 0.487209,0.1960407 0.595062,0.012262 C 54.122588,4.2933236 54.771898,3.5419208 55.169198,2.7794627 55.367869,2.3982434 55.50406,2.0141468 55.491185,1.6742211 55.479769,1.3728918 55.289487,1.1285405 54.984884,0.92885051 A 43.661361,43.657956 0.00387387 0 0 29.43377,3.443245 c -1.030347,0.5162695 -2.101252,1.0639047 -3.098526,1.6479012 -1.167789,0.6838606 -2.226382,1.3876291 -2.973337,2.0476585 -1.493914,1.3200651 -1.493941,1.3198977 -1.527054,1.4680284 -0.03314,0.1481168 -0.100007,0.4441887 -1.726372,2.3567769 -0.813176,0.956294 -1.34751,1.738045 -1.66785,2.333149 -0.320322,0.595112 -0.42666,1.003197 -0.384143,1.215273 0.04251,0.212074 0.234139,0.227823 0.509513,0.03502 0.275375,-0.192808 0.634657,-0.59398 1.012908,-1.213504 0.378248,-0.619532 0.597967,-0.856988 0.697064,-0.818721 0.09913,0.03819 0.07789,0.352465 -0.02732,0.835 -0.210414,0.965063 -0.754497,2.605787 -1.332973,4.066722 -0.144601,0.365246 -0.186859,0.720801 -0.148311,1.066701 0.03855,0.345902 0.156961,0.681983 0.336976,1.006826 0.360016,0.649685 0.962651,1.255073 1.638237,1.81017 1.351167,1.110199 2.998591,2.017166 3.609862,2.666171 0.384632,0.408375 0.712514,0.950818 1.020377,1.549186 0.307861,0.598359 0.596198,1.253545 0.899903,1.886521 0.30371,0.632978 0.623852,1.243793 0.996026,1.756013 0.372167,0.512218 0.796772,0.925036 1.310022,1.16112 0.201567,0.09272 0.3256,0.230429 0.38935,0.399935 0.06374,0.169503 0.06681,0.370909 0.0263,0.589646 -0.08102,0.437483 -0.336927,0.946267 -0.63357,1.415354 -0.593246,0.938202 -1.348959,1.719074 -1.193251,1.461235 0,0 -1.182262,0.589562 -2.353951,1.510888 -0.585843,0.460661 -1.170194,1.004154 -1.601453,1.598418 -0.215618,0.297138 -0.392885,0.607584 -0.51393,0.926027 -0.121014,0.318457 -0.185563,0.644883 -0.174728,0.976576 -0.203486,0.656204 -0.274965,1.37572 -0.244393,2.132865 0.03058,0.757155 0.162982,1.552082 0.367105,2.360608 0.408239,1.617048 1.103767,3.287272 1.843143,4.812358 0.739379,1.525079 1.522959,2.904893 2.109389,3.941385 0.58643,1.036492 0.976138,1.729711 0.925554,1.880994 -0.182758,0.546453 -1.510808,3.926316 -2.750452,7.66721 -0.619818,1.870449 -1.218515,3.830495 -1.640096,5.57298 -0.421583,1.742492 -0.666572,3.266673 -0.581603,4.263484 -0.04611,0.912266 0.04207,1.583173 0.200486,2.076071 0.158412,0.492896 0.387477,0.808199 0.621758,1.009267 0.468549,0.40213 0.960585,0.347819 0.960585,0.347819 -0.04904,0.01323 1.212455,-1.469696 2.69115,-3.066843 0.739353,-0.798574 1.533452,-1.625751 2.244516,-2.309129 0.711063,-0.683378 1.338606,-1.222899 1.747912,-1.445891 0.925489,-0.266917 2.353965,-1.006857 4.029262,-1.998205 1.675294,-0.991357 3.598098,-2.234124 5.51044,-3.504655 1.982024,-1.316818 3.147156,-2.07339 4.822912,-3.202792 0.232126,-0.705414 0.497365,-1.403669 0.723559,-2.110362 1.184307,-3.700159 2.286345,-7.417415 3.293375,-11.155785 0.03886,-0.1443 0.06636,-0.291091 0.104948,-0.435448 z" style="fill:#5fd35f" />
    <path style="fill:#0091d2" d="M 64.530282,3.9921983 A 43.661362,43.657957 0.00302341 0 0 56.087999,1.1645386 c -0.06041,3.7026399 -0.222968,7.3826339 -0.527797,11.0325864 -0.324498,3.8855 -0.78126,7.74229 -1.35839,11.573328 -0.577128,3.831044 -1.275001,7.635856 -2.079646,11.417854 -0.804639,3.781999 -1.716961,7.54204 -2.724001,11.280413 -1.00703,3.738372 -2.109067,7.455628 -3.293375,11.155787 -1.184307,3.700159 -2.451132,7.382477 -3.787595,11.049831 -1.336466,3.667359 -2.742053,7.3202 -4.205555,10.960177 -0.847209,2.107113 -1.750509,4.202216 -2.633617,6.301597 A 43.661362,43.657957 0.00302341 0 0 85.958123,61.896897 43.661362,43.657957 0.00302341 0 0 64.530282,3.9921983 Z" />
    <path d="m 89.636836,38.815674 c 0.07218,-0.02352 -0.312351,-0.385253 -1.067484,-0.906658 -0.791185,-0.546291 -1.918735,-1.220951 -3.137548,-1.721285 -0.609405,-0.250186 -1.241662,-0.455648 -1.865766,-0.58064 -0.624104,-0.124992 -1.239647,-0.169245 -1.816972,-0.09328 -0.577328,0.07597 -1.116067,0.271359 -1.585143,0.624082 -0.46907,0.352725 -0.869285,0.862586 -1.168631,1.567854 -0.180359,0.425 -0.456928,0.845869 -0.783771,1.255325 -0.326834,0.409468 -0.703657,0.808187 -1.0824,1.188782 -0.75748,0.761179 -1.524467,1.451246 -1.922386,2.016853 -0.376547,0.535225 -0.685021,1.099043 -0.930695,1.681587 -0.245702,0.582523 -0.428625,1.18337 -0.554855,1.793746 -0.25246,1.220752 -0.2768,2.477899 -0.120045,3.693124 0.156748,1.215222 0.495543,2.388221 0.970086,3.442087 0.474543,1.053866 1.084039,1.988513 1.784953,2.725184 0.388481,0.408303 0.881615,0.703949 1.42763,0.933638 0.54601,0.229686 1.145921,0.393477 1.749333,0.538658 0.603405,0.145179 1.210211,0.271067 1.770887,0.425836 0.560685,0.154767 1.075121,0.338465 1.49295,0.596921 0.417834,0.258429 0.739364,0.592192 0.914204,1.048432 0.17484,0.456241 0.203039,1.035175 0.03477,1.783301 -0.168269,0.748126 -0.534492,1.665671 -1.146002,2.799779 -0.611511,1.134107 -1.469121,2.48413 -2.623996,4.098325 -2.309753,3.228382 -4.302655,5.769539 -5.993556,7.764328 -1.690895,1.994791 -3.080121,3.443475 -4.179779,4.488999 -0.799796,0.760433 -1.279235,1.115658 -1.778888,1.503845 a 43.661362,43.657957 0.00387387 0 0 17.934392,-19.5876 43.661362,43.657957 0.00387387 0 0 3.678712,-23.081223 z" style="fill:#3dca3d" />
    <path d="m 83.975633,21.656938 c -0.06024,0.219742 -0.09423,0.500668 -0.06786,0.86978 0.06119,0.856584 0.325082,1.958293 0.648802,2.57387 0.161858,0.307785 0.134503,0.481962 0.0022,0.56989 -0.132332,0.08793 -0.369032,0.0894 -0.626398,0.05274 -0.514744,-0.07332 -1.111075,-0.300056 -1.111075,-0.300056 -0.465456,-0.30736 -0.917495,-0.503418 -1.334188,-0.625003 -0.416688,-0.121581 -0.798297,-0.169202 -1.121158,-0.177631 -0.645722,-0.01686 -1.058614,0.119688 -1.058614,0.119688 0,0 -0.125532,3.116442 0.132127,5.195194 0.06442,0.519687 0.283386,0.971208 0.605292,1.349669 0.321902,0.378453 0.746714,0.683973 1.223911,0.91505 0.477191,0.231088 1.006445,0.386455 1.536736,0.464003 0.530295,0.07756 1.061937,0.07693 1.543134,-0.0052 0.2406,-0.04106 0.426811,-0.154464 0.572513,-0.318651 0.145672,-0.164201 0.250354,-0.378799 0.327226,-0.620577 0.153819,-0.483521 0.196776,-1.07656 0.231951,-1.59713 0.03518,-0.520567 0.0627,-0.969257 0.188033,-1.162501 0.06269,-0.09661 0.149702,-0.128221 0.274052,-0.07469 0.124342,0.05355 0.286047,0.193531 0.498177,0.442752 0.424263,0.498449 0.741524,1.064147 0.996029,1.630397 0.254505,0.56625 0.445741,1.132028 0.618604,1.63157 0.17287,0.499544 0.327553,0.932464 0.506892,1.230786 0.07527,0.125208 0.188447,0.105882 0.275879,0.178825 a 43.661362,43.657957 0.00387387 0 0 -4.862243,-12.34278 z" style="fill:#3dca3d" />
    <path d="m 79.77051,15.719575 c -2.72e-4,0.05895 -0.01268,0.05363 -0.01022,0.119478 0.01557,0.415369 0.09165,0.959496 0.294733,1.52886 0.203087,0.569364 0.532978,1.164527 1.057489,1.678871 0.262252,0.25717 0.573207,0.494077 0.940925,0.698303 0.272545,0.151365 0.611693,0.260677 0.950172,0.370465 a 43.661362,43.657957 0.00387387 0 0 -3.233136,-4.395989 z" style="fill:#3dca3d" />
    <path d="M 68.319044,5.9710357 A 43.661362,43.657957 0.00387387 0 0 64.530284,3.992198 43.661362,43.657957 0.00387387 0 0 60.582064,2.4511762 c 0.157806,0.1504714 0.393524,0.3608081 0.770932,0.8136228 0.244404,0.2932336 0.482896,0.616768 0.65133,0.9261199 0.168434,0.3093519 0.266799,0.605237 0.227149,0.8437084 -0.0793,0.4769447 0.02258,1.0143417 0.271349,1.5137773 0.248767,0.4994355 0.64338,0.9605126 1.147371,1.2855892 0.251991,0.1625406 0.509266,0.1996842 0.775417,0.1601626 0.266146,-0.039525 0.541445,-0.1554662 0.828552,-0.2976627 0.574214,-0.2843929 1.197779,-0.6752343 1.896659,-0.7739554 0.698873,-0.098723 1.110308,-0.2831111 1.267654,-0.5491455 0.06089,-0.1029911 -0.08612,-0.2750634 -0.09943,-0.4023571 z" style="fill:#3dca3d" />
    <path d="m 49.503115,46.033274 c -0.03859,0.144357 -0.06609,0.291148 -0.104947,0.435448 -1.007031,3.73837 -2.109069,7.455627 -3.293376,11.155785 -0.226194,0.706693 -0.491432,1.404948 -0.723559,2.110362 1.557946,-1.05 3.666637,-2.502346 4.483932,-2.977472 0.889272,-0.516985 1.715594,-1.054331 2.410069,-1.60781 0.694472,-0.553474 1.25737,-1.124189 1.616692,-1.706922 0.179675,-0.29136 0.307816,-0.586085 0.377346,-0.883422 0.06953,-0.297338 0.08037,-0.597028 0.02228,-0.899403 C 54.23346,51.357466 54.10631,51.05279 53.903032,50.746268 53.699753,50.439745 53.420523,50.131649 53.054519,49.821897 52.0547,48.97573 51.049933,47.929651 50.104007,46.817805 49.885643,46.561144 49.714509,46.295253 49.503091,46.033263 Z" style="fill:#3dca3d" />
  </g>
  <g
     id="pocket">
    <path d="m 1.2528152,57.086555 c -0.67652795,5.1e-5 -1.22494492,0.414488 -1.22501283,0.925738 v 10.910869 c -7.923e-5,0.006 -7.923e-5,0.01207 0,0.01811 L 1.3401411,119.6851 c 0.019902,0.77138 0.102925,1.54266 0.3086467,2.30621 0.2023543,0.75115 0.5003935,1.47526 0.8852623,2.16518 0.3846803,0.68958 0.854932,1.34603 1.4020775,1.95905 0.5470775,0.61296 1.1705264,1.18293 1.8590484,1.70323 0.6885014,0.52028 1.4429324,0.99067 2.2538251,1.40396 0.8112171,0.41348 1.6786901,0.76884 2.5911869,1.05954 0.912962,0.29085 1.871198,0.51696 2.865152,0.6699 0.993426,0.15279 2.023392,0.23324 3.076902,0.23324 H 76.04802 c 1.053529,0 2.083458,-0.0803 3.076884,-0.23324 0.993992,-0.15298 1.952179,-0.37905 2.865148,-0.6699 0.912516,-0.2907 1.780002,-0.64606 2.591196,-1.05954 0.810402,-0.41307 1.566003,-0.88327 2.255012,-1.40396 0.689046,-0.5207 1.311294,-1.09082 1.857875,-1.70323 0.547128,-0.61302 1.017384,-1.26947 1.40207,-1.95905 0.384856,-0.68992 0.682878,-1.41404 0.885257,-2.16518 0.205567,-0.76279 0.289872,-1.53406 0.309831,-2.30621 l 1.31235,-50.743829 c 7.5e-5,-0.006 7.5e-5,-0.01207 0,-0.01811 V 58.012293 c -7.5e-5,-0.511246 -0.548468,-0.925681 -1.225007,-0.925738 H 76.940465 15.689817 Z" style="fill:#f9f9f9" />
    <path d="M 15.091518,57.087042 0.10858226,72.068822 M 34.61756,57.087136 0.60100358,91.101046 M 54.143751,57.08703 1.0931797,110.13348 M 73.669993,57.086921 4.3013226,126.45017 M 92.485532,57.797414 19.091589,131.18568 M 92.384078,77.423431 38.617737,131.1856 M 91.866284,97.465799 58.14413,131.18534 M 91.348528,117.5081 77.802933,131.05264" style="stroke:#e6e6e6;stroke-width:0.1;stroke-miterlimit:4" />
    <path d="M 74.477584,57.086976 92.445973,75.053977 M 54.949701,57.087011 91.953627,94.088048 M 35.421762,57.086972 91.461357,113.12221 M 15.893639,57.086772 86.710094,127.89771 M 0.02806836,60.748821 70.470169,131.18545 M 0.32890132,80.576039 50.94223,131.18543 M 0.84707276,100.62055 31.414398,131.18551 m -29.9265531,-10.39786 9.5993711,9.59863" style="stroke:#b5d7e7;stroke-width:0.1px" />
    <path d="m 3.0292313,57.991602 v 10.481414 c -7.73e-5,0.0057 -7.73e-5,0.0117 0,0.01754 L 4.256474,117.23707 c 0.018487,0.74103 0.096304,1.48194 0.2886333,2.21544 0.1891341,0.72158 0.4679521,1.41719 0.8278632,2.07996 0.3597243,0.66245 0.7995022,1.29305 1.3111616,1.88195 0.5115877,0.58883 1.0946173,1.13634 1.7385078,1.63616 0.6438432,0.49982 1.3493585,0.95168 2.1076791,1.34872 0.758621,0.39718 1.569857,0.73857 2.423157,1.01783 0.853791,0.27938 1.749876,0.49659 2.679351,0.64354 0.929041,0.14675 1.892209,0.22405 2.877391,0.22405 h 55.609883 c 0.985201,0 1.94835,-0.0771 2.877391,-0.22405 0.929532,-0.14695 1.825598,-0.36416 2.679351,-0.64354 0.853338,-0.27926 1.664551,-0.62063 2.423151,-1.01783 0.757846,-0.39679 1.464474,-0.84852 2.108811,-1.34872 0.644376,-0.50019 1.226272,-1.04785 1.737407,-1.63616 0.511644,-0.5889 0.951433,-1.21952 1.311161,-1.88195 0.359879,-0.66276 0.638603,-1.35838 0.827852,-2.07996 0.192154,-0.73276 0.271084,-1.47367 0.289741,-2.21544 l 1.227233,-48.746512 c 5.6e-5,-0.0057 5.6e-5,-0.01169 0,-0.01754 V 57.991602" style="stroke:#0091d2;stroke-width:0.2;stroke-linecap:round;stroke-linejoin:round;stroke-miterlimit:4;stroke-dasharray:1.58, 1.58;stroke-dashoffset:1.1;fill: none" />
    <path d="m 0.02797215,68.795853 v 0.127703 c -8.112e-5,0.006 -8.112e-5,0.01151 0,0.01754 l 0.03220179,1.256489 H 7.2692047 c 0.2967847,0 0.5351967,-0.239371 0.5351967,-0.536129 V 69.33101 c 0,-0.296756 -0.238412,-0.535155 -0.5351967,-0.535155 z" style="fill:#0091d2" />
    <path d="m 85.357789,68.795853 c -0.296778,0 -0.536169,0.238398 -0.536169,0.535155 v 0.330449 c 0,0.296756 0.239391,0.536129 0.536169,0.536129 h 7.213916 l 0.03226,-1.256489 c 7.5e-5,-0.006 7.5e-5,-0.01151 0,-0.01754 v -0.127703 z" style="fill:#0091d2" />
    <path d="M 6.9133646,69.520348 H 87.710104" style="stroke:#0091d2;stroke-width:0.2;stroke-linecap:round;stroke-linejoin:round;stroke-miterlimit:4;stroke-dasharray:1.58, 1.58;stroke-dashoffset:1.1" />
    <path d="m 67.5891,112.34362 c -0.05282,0 -0.104321,0.006 -0.155632,0.017 -0.04716,0.01 -0.09206,0.0256 -0.135637,0.0442 l -0.01132,0.003 -0.09583,0.0578 -0.01509,0.0102 c 0.0094,-0.009 0.0057,-7.6e-4 -0.01132,0.007 l -0.0075,0.003 -0.0075,0.003 c -0.02151,0.0109 -0.05414,0.0243 -0.08772,0.0374 -0.01698,0.004 -0.08263,0.0136 -0.179591,0.0136 -0.212207,0 -0.422207,-0.009 -0.62651,-0.0272 h -0.0075 c -0.222545,-0.0268 -0.448731,-0.0408 -0.678388,-0.0408 -0.19206,0 -0.385063,0.0158 -0.582632,0.051 h -0.0038 v 0.003 c -0.204642,0.0379 -0.39525,0.10963 -0.570652,0.2143 h -0.0038 c -0.271216,0.16407 -0.483819,0.39556 -0.642489,0.68032 -0.152426,0.26723 -0.275762,0.55592 -0.363143,0.86742 v 0.003 0.003 c -0.07848,0.30788 -0.132052,0.61291 -0.163555,0.91502 v 0.003 c -0.0232,0.2971 -0.03584,0.55427 -0.03584,0.77556 0,0.24214 0.01698,0.52648 0.04792,0.8504 0.03188,0.32527 0.0964,0.64458 0.19953,0.96267 l 0.0038,0.003 v 0.003 c 0.113376,0.31759 0.274725,0.60994 0.486857,0.87423 0.224752,0.28002 0.540544,0.479 0.925796,0.58848 0.153746,0.0437 0.312793,0.0704 0.474877,0.0782 0.159406,0.0136 0.308096,0.0204 0.446939,0.0204 0.143182,0 0.333714,-0.0108 0.582632,-0.0306 0.255218,-0.0204 0.511795,-0.0582 0.766184,-0.11226 0.26948,-0.0557 0.508475,-0.13236 0.714325,-0.23471 0.228638,-0.11369 0.383082,-0.30925 0.383082,-0.52385 0,-0.15196 -0.0747,-0.29763 -0.203511,-0.40139 -0.121676,-0.10837 -0.293872,-0.17349 -0.470897,-0.17349 -0.07433,0 -0.148841,0.006 -0.21947,0.0306 l -0.127713,0.0442 -0.0075,0.003 c -0.191192,0.0873 -0.414265,0.15069 -0.670389,0.18708 -0.265783,0.0378 -0.514436,0.0578 -0.746263,0.0578 h -0.151671 c -0.06093,0 -0.118469,-0.004 -0.17959,-0.0102 -0.06018,-0.006 -0.116583,-0.013 -0.167706,-0.0238 -0.02433,-0.005 -0.0132,7.5e-4 -0.01509,0 0.0038,0.002 0.0019,0.002 -0.0075,-0.0306 -0.0132,-0.0444 -0.02924,-0.11022 -0.04395,-0.19729 -0.02207,-0.18263 -0.04094,-0.38401 -0.05584,-0.59869 v -0.007 c -0.0075,-0.21861 -0.01698,-0.42623 -0.02396,-0.62589 v -0.003 -0.2347 c 0.203548,0.0104 0.406984,0.0204 0.610532,0.0204 0.134693,0 0.287703,-1.8e-4 0.458918,-0.007 l 0.0038,-0.003 h 0.0038 c 0.189589,-0.0142 0.369802,-0.0419 0.538715,-0.085 h 0.0038 0.0038 c 0.185438,-0.0527 0.346126,-0.13306 0.478857,-0.23812 h 0.0038 c 0.16016,-0.12746 0.23941,-0.31147 0.23941,-0.50685 0,-0.14817 -0.07338,-0.29104 -0.195531,-0.39798 -0.121865,-0.1134 -0.301493,-0.18029 -0.482857,-0.18029 -0.123751,0 -0.244428,0.0304 -0.351163,0.085 -0.06867,0.0351 -0.109603,0.0969 -0.159594,0.14968 -0.06546,0.0166 -0.136014,0.0259 -0.20751,0.0306 h -0.267368 c -0.227072,0 -0.455277,-0.009 -0.682368,-0.0204 v -0.23812 -0.007 c 0.0075,-0.19888 0.02094,-0.40752 0.03584,-0.62589 0.01509,-0.21867 0.03339,-0.41996 0.05584,-0.60549 v -0.003 c 0.01509,-0.0873 0.02943,-0.15423 0.04395,-0.1973 0.0132,-0.0396 0.02641,-0.0466 0.0075,-0.0306 h 0.08772 c 0.244258,0 0.486026,0.0123 0.722286,0.0374 h 0.0038 0.0038 c 0.259331,0.0201 0.51404,0.0306 0.766183,0.0306 0.122808,0 0.25603,-0.01 0.40306,-0.0306 0.151483,-0.0215 0.291797,-0.0539 0.423,-0.0987 l 0.0038,-0.003 h 0.0038 c 0.144125,-0.0538 0.269876,-0.12459 0.37514,-0.2143 l 0.0038,-0.003 0.0038,-0.003 c 0.120733,-0.11235 0.183552,-0.26311 0.183552,-0.4184 0,-0.14817 -0.07338,-0.29105 -0.19555,-0.39799 -0.121865,-0.11338 -0.301474,-0.18029 -0.482857,-0.18029 z m -7.418427,0.0612 c -0.203945,0 -0.398891,0.0679 -0.542733,0.19049 l -0.0038,0.003 h -0.0038 c -0.121299,0.11142 -0.213792,0.24918 -0.283327,0.40479 -0.06621,0.14164 -0.114696,0.29127 -0.147709,0.44561 -0.03075,0.13802 -0.05584,0.25866 -0.07187,0.36057 -0.02377,0.16188 -0.03999,0.32445 -0.04792,0.48643 -0.0075,0.15666 -0.01698,0.30888 -0.02396,0.45242 v 0.003 0.37758 0.26193 0.0238 c -0.105076,0.0155 -0.216659,0.0164 -0.311246,0.0544 l -0.0038,0.003 c -0.206699,0.0881 -0.303286,0.28879 -0.303286,0.49664 0,0.10409 0.02358,0.20844 0.08772,0.29594 l 0.0038,0.003 0.0038,0.007 c 0.05886,0.0701 0.137146,0.12474 0.227469,0.16328 l 0.0075,0.003 h 0.0038 c 0.08395,0.0318 0.171667,0.0558 0.263387,0.0714 l 0.0075,0.003 h 0.01132 c 0.0132,10e-4 0.02358,-9.1e-4 0.03584,0 0.0075,0.12883 0.0132,0.2556 0.02396,0.4354 v 0.003 c 0.02302,0.24156 0.0449,0.49029 0.06772,0.74495 v 0.003 c 0.03113,0.25222 0.07282,0.49422 0.11979,0.72114 0.04791,0.22441 0.10017,0.40077 0.175628,0.53745 h 0.0038 v 0.003 c 0.05792,0.0987 0.135259,0.18469 0.23145,0.25853 0.125449,0.0972 0.294041,0.14628 0.466916,0.14628 0.200304,0 0.399495,-0.0686 0.518756,-0.2007 l 0.0038,-0.003 c 0.09055,-0.1081 0.153369,-0.22328 0.183552,-0.34357 v -0.003 c 0.04056,-0.18013 0.07206,-0.38381 0.08772,-0.61229 l -0.0038,0.003 c 0.02339,-0.2252 0.04018,-0.46011 0.04792,-0.70414 v -0.003 c 0.0075,-0.2227 0.01132,-0.43972 0.01132,-0.64971 0,-0.14442 0.0038,-0.26623 0.0075,-0.39119 0.0232,-0.001 0.04414,-0.002 0.06791,-0.003 0.110924,-0.008 0.216603,-0.0276 0.315265,-0.0612 l 0.01132,-0.003 0.0075,-0.003 c 0.102435,-0.0437 0.191702,-0.10676 0.259388,-0.18368 l 0.0038,-0.003 0.0038,-0.003 c 0.07678,-0.0982 0.103755,-0.21409 0.103755,-0.33677 0,-0.16395 -0.09281,-0.32559 -0.247409,-0.42178 -0.129788,-0.0915 -0.285968,-0.14629 -0.450938,-0.14629 -0.02245,0 -0.04546,0.006 -0.06791,0.007 0.0038,-0.12085 0.0075,-0.24048 0.0075,-0.36397 v -0.007 c 0.0075,-0.19774 0.0075,-0.39345 0,-0.58508 -0.0075,-0.21108 -0.02037,-0.42163 -0.03584,-0.6327 -0.01509,-0.2216 -0.04414,-0.43312 -0.08376,-0.6361 -0.0094,-0.0641 -0.02603,-0.1278 -0.05188,-0.19389 -0.0283,-0.0725 -0.06829,-0.14289 -0.11564,-0.2075 -0.05565,-0.0757 -0.136768,-0.13484 -0.227469,-0.18028 -0.104509,-0.0633 -0.230449,-0.0918 -0.359143,-0.0918 z m 18.544134,0 c -0.203963,0 -0.402871,0.0679 -0.546713,0.19049 v 0.003 h -0.0038 c -0.121299,0.11142 -0.213811,0.24918 -0.283346,0.40479 -0.06621,0.14164 -0.118658,0.29127 -0.15167,0.44561 -0.03075,0.13802 -0.05188,0.25867 -0.06791,0.36057 -0.02377,0.16188 -0.03999,0.32445 -0.04792,0.48643 -0.0075,0.15666 -0.01698,0.30888 -0.02396,0.45242 v 0.003 0.37758 0.26193 0.0204 c -0.106207,0.0153 -0.215735,0.0195 -0.311265,0.0578 l -0.0038,0.003 h -0.0038 c -0.206699,0.0881 -0.303285,0.28879 -0.303285,0.49664 0,0.10409 0.02754,0.20844 0.09187,0.29594 l 0.0038,0.003 0.0038,0.007 c 0.05867,0.0701 0.136957,0.12474 0.227431,0.16328 l 0.0038,0.003 h 0.0038 c 0.08395,0.0318 0.175629,0.0558 0.267367,0.0714 l 0.0075,0.003 h 0.01132 c 0.01132,9.6e-4 0.02094,-8.2e-4 0.03188,0 0.0075,0.12885 0.0132,0.25555 0.02396,0.4354 v 0.003 c 0.02302,0.24156 0.04886,0.49029 0.07187,0.74495 v 0.003 c 0.03113,0.25222 0.06885,0.49422 0.115828,0.72114 0.04792,0.22441 0.104132,0.40077 0.179591,0.53745 v 0.003 c 0.05791,0.0987 0.13922,0.18469 0.235429,0.25853 0.125449,0.0972 0.294061,0.14628 0.466917,0.14628 0.200303,0 0.395514,-0.0686 0.514775,-0.2007 h 0.0038 l 0.0038,-0.003 c 0.09055,-0.1081 0.153369,-0.22328 0.183552,-0.34357 v -0.003 c 0.04037,-0.17913 0.0681,-0.38194 0.08376,-0.60889 v -0.003 c 0.02302,-0.2242 0.04018,-0.45789 0.04792,-0.70074 v -0.003 c 0.0075,-0.2227 0.01132,-0.43972 0.01132,-0.64971 0,-0.14442 0.0038,-0.26623 0.0075,-0.39119 0.02302,-0.001 0.04452,-0.002 0.06791,-0.003 0.110923,-0.008 0.216584,-0.0276 0.315264,-0.0612 l 0.0075,-0.003 0.0075,-0.003 c 0.07942,-0.0339 0.143559,-0.0888 0.203511,-0.14286 v 0.36396 0.003 c 0.0075,0.19121 0.02056,0.39937 0.03584,0.62928 v 0.003 0.003 c 0.02358,0.22728 0.06093,0.46106 0.107717,0.70073 v 0.003 0.003 c 0.05565,0.23738 0.126392,0.45606 0.215489,0.65651 h 0.0038 c 0.09244,0.20061 0.210284,0.37228 0.363124,0.51024 0.166763,0.15053 0.398759,0.23472 0.64247,0.23472 0.186193,0 0.366501,-0.0594 0.502835,-0.16669 l 0.0038,-0.003 h 0.0038 c 0.115451,-0.0984 0.212793,-0.21375 0.291307,-0.34016 0.07395,-0.11891 0.143559,-0.24788 0.20751,-0.39118 v -0.003 c 0.06263,-0.14698 0.120733,-0.29903 0.175629,-0.45242 0.05395,-0.15124 0.105264,-0.29364 0.151671,-0.43201 0.0449,-0.1202 0.08734,-0.22638 0.131674,-0.32655 0.0019,0.0155 0.0057,0.0284 0.0075,0.0442 0.01509,0.0941 0.02452,0.18837 0.03188,0.28234 0.0075,0.0887 0.01132,0.16231 0.01132,0.2143 0,0.14229 -0.0094,0.2827 -0.03188,0.4252 v 0.003 l -0.0038,0.003 c -0.01509,0.13297 -0.04056,0.27034 -0.08376,0.41158 v 0.003 c -0.01698,0.0593 -0.03188,0.10294 -0.03188,0.15988 0,0.15096 0.06471,0.30111 0.183552,0.41158 l 0.0075,0.003 0.0075,0.007 c 0.129599,0.10128 0.301757,0.15649 0.478877,0.15649 0.270951,0 0.522019,-0.0693 0.722267,-0.2075 0.183363,-0.12657 0.330167,-0.28578 0.434978,-0.46944 v -0.003 c 0.107717,-0.17711 0.18525,-0.36202 0.227469,-0.55447 v -0.003 c 0.04773,-0.19076 0.07584,-0.35979 0.07584,-0.51364 0,-0.23436 -0.04339,-0.46157 -0.127713,-0.67692 -0.07659,-0.22124 -0.195588,-0.41972 -0.359144,-0.5885 -0.16431,-0.16958 -0.372046,-0.30579 -0.61057,-0.40137 -0.248861,-0.10607 -0.534942,-0.15649 -0.845999,-0.15649 -0.19887,0 -0.390157,0.0453 -0.554694,0.13608 -0.14337,0.0767 -0.270536,0.17788 -0.383082,0.29593 0.02735,-0.35861 0.04905,-0.71629 0.08376,-1.07491 0.06188,-0.63902 0.09187,-1.27943 0.09187,-1.91851 0,-0.0774 -0.0094,-0.1543 -0.02396,-0.23131 -0.0094,-0.0939 -0.04339,-0.18387 -0.09583,-0.26532 -0.04697,-0.0832 -0.118281,-0.15485 -0.207529,-0.2075 -0.10998,-0.0703 -0.244767,-0.0986 -0.383101,-0.0986 -0.260482,0 -0.504721,0.10699 -0.682368,0.28233 -0.160161,0.15926 -0.28444,0.36037 -0.383102,0.59868 -0.09696,0.23411 -0.172044,0.49214 -0.227468,0.77557 h -0.0038 v 0.003 c -0.04641,0.27067 -0.0847,0.53845 -0.11564,0.80278 v 0.003 c -0.02151,0.24427 -0.03565,0.4689 -0.04395,0.68032 -0.03603,-0.0426 -0.02981,-0.10503 -0.0798,-0.13606 -0.129788,-0.0915 -0.289929,-0.14628 -0.454918,-0.14628 -0.02169,0 -0.04226,0.006 -0.06376,0.007 0.0038,-0.12084 0.0038,-0.24049 0.0038,-0.36398 v -0.007 c 0.0075,-0.19774 0.0075,-0.39345 0,-0.58508 -0.0075,-0.21107 -0.01698,-0.42163 -0.03188,-0.6327 -0.01509,-0.21925 -0.04471,-0.42827 -0.08376,-0.6293 v -0.007 c -0.0094,-0.0643 -0.02999,-0.12753 -0.05584,-0.19389 -0.0283,-0.0725 -0.06433,-0.14289 -0.111678,-0.2075 -0.05546,-0.0757 -0.136768,-0.13483 -0.227469,-0.18027 -0.10451,-0.0633 -0.230449,-0.0918 -0.359143,-0.0918 z m -26.700845,0.0272 c -0.198511,0 -0.386138,0.0607 -0.530754,0.17349 -0.132806,0.0971 -0.239183,0.21988 -0.319244,0.36397 -0.101492,0.18022 -0.179025,0.3886 -0.235449,0.62249 v 0.003 c -0.04697,0.22021 -0.08451,0.44791 -0.115639,0.68713 v 0.003 l -0.0038,0.003 c -0.02339,0.23868 -0.03603,0.47562 -0.04395,0.71433 v 0.003 0.61229 0.33337 c 0,0.14019 0.0038,0.29797 0.01132,0.47621 0.0075,0.17841 0.01698,0.37079 0.03188,0.57488 l 0.0038,0.003 c 0.0232,0.20478 0.04886,0.40714 0.0798,0.60549 0.01698,0.12354 0.04528,0.27499 0.08376,0.45922 v 0.003 0.003 c 0.04829,0.18543 0.111112,0.36928 0.19155,0.54765 0.08414,0.18669 0.195475,0.3518 0.335204,0.49325 l 0.0038,0.003 c 0.158463,0.15194 0.384328,0.23811 0.62253,0.23811 0.177139,0 0.35107,-0.0543 0.474878,-0.15988 0.128279,-0.10929 0.20351,-0.26041 0.20351,-0.415 0,-0.13549 -0.06037,-0.26859 -0.163555,-0.37418 l 0.03999,0.0714 c -0.01132,-0.04 -0.01509,-0.0739 -0.01509,-0.10205 0,-0.0469 -0.0057,-0.0962 -0.01132,-0.14628 v -0.0238 -0.13266 c 0.09527,0.0318 0.236373,0.0543 0.279347,0.0952 l 0.0038,0.003 c 0.110547,0.0998 0.1924,0.20984 0.251408,0.33677 0.03641,0.0868 0.06678,0.16671 0.08772,0.23811 v 0.007 l 0.0038,0.007 c 0.03264,0.0832 0.0698,0.159 0.111678,0.23131 4.53e-4,8.7e-4 -4.71e-4,0.002 0,0.003 7.55e-4,10e-4 0.0038,0.002 0.0038,0.003 0.04773,0.0875 0.109226,0.16786 0.187514,0.2347 l 0.0075,0.003 0.0038,0.003 c 0.110735,0.0839 0.258406,0.12587 0.40704,0.12587 0.186382,0 0.362218,-0.0418 0.498817,-0.13608 0.12394,-0.0813 0.223752,-0.18552 0.291325,-0.30614 v -0.003 c 0.07018,-0.11278 0.120733,-0.22789 0.147709,-0.35036 v -0.003 c 0.02452,-0.11842 0.0398,-0.22251 0.0398,-0.31634 0,-0.33748 -0.105452,-0.64355 -0.315245,-0.89802 -0.145257,-0.1805 -0.381007,-0.27445 -0.60259,-0.38098 0.08885,-0.064 0.181288,-0.1195 0.263386,-0.19731 0.175252,-0.15998 0.275366,-0.36447 0.275366,-0.58167 0,-0.15198 -0.07867,-0.30102 -0.207529,-0.40479 -0.121676,-0.10837 -0.293872,-0.17348 -0.470897,-0.17348 -0.170535,0 -0.337675,0.0583 -0.45888,0.15988 -0.117149,0.0923 -0.19438,0.21863 -0.215508,0.35376 l 0.03188,-0.0782 c -0.0038,0.006 -0.04603,0.0462 -0.11979,0.0918 -0.0764,0.041 -0.160349,0.0807 -0.251408,0.12248 l -0.195531,0.0782 c 0.01509,-0.37199 0.0315,-0.74451 0.05584,-1.11232 0.03094,-0.47401 0.04792,-0.94787 0.04792,-1.42188 v -0.29254 c 0,-0.0913 -0.0094,-0.18948 -0.02396,-0.29595 -0.0094,-0.12308 -0.04471,-0.24311 -0.09979,-0.35376 -0.04773,-0.10864 -0.118281,-0.20898 -0.21549,-0.28574 -8.87e-4,-7.6e-4 -0.0038,7.6e-4 -0.0038,0 -0.119979,-0.10084 -0.291344,-0.15307 -0.462898,-0.15307 z m -11.317239,0.0204 c -0.368575,0 -0.721625,0.0679 -1.04951,0.2041 -0.308869,0.12502 -0.589593,0.28528 -0.842019,0.47963 -0.09847,0.0693 -0.207038,0.16322 -0.339204,0.28913 l -0.0038,0.003 c -0.126204,0.12785 -0.253672,0.26797 -0.379102,0.415 -0.128657,0.14449 -0.237524,0.29669 -0.327225,0.45581 -0.09432,0.16083 -0.151671,0.31506 -0.151671,0.46602 0,0.14693 0.06678,0.2894 0.183552,0.39799 l 0.0038,0.003 0.0038,0.003 c 0.128279,0.10928 0.305493,0.17007 0.486856,0.17007 0.0013,0 0.0019,2e-5 0.0038,0 v 0.003 0.003 c -0.01509,0.0991 -0.03245,0.2044 -0.04792,0.31635 v 0.003 c -0.0232,0.19165 -0.04433,0.38322 -0.0598,0.57487 v 0.003 0.003 c -0.0075,0.19144 -0.01132,0.37195 -0.01132,0.54426 v 0.45241 0.30274 c 0,0.12109 0.0038,0.27856 0.01132,0.46943 0.0075,0.19406 0.03886,0.38392 0.08772,0.57147 v 0.003 0.003 c 0.05867,0.19318 0.146955,0.36514 0.263387,0.51024 0.134693,0.16792 0.36135,0.26534 0.602571,0.26534 0.232902,0 0.460635,-0.10498 0.562673,-0.27894 v -0.003 c 0.07772,-0.13979 0.129222,-0.28101 0.147709,-0.4218 0.01509,-0.13606 0.01943,-0.27053 0.01132,-0.40139 v -0.0102 -0.28573 c 0,-0.1496 -0.0038,-0.29942 -0.01132,-0.44901 v -0.0102 -0.12247 c 0.08527,0.0404 0.160538,0.0931 0.251408,0.12587 h 0.0038 c 0.232147,0.0806 0.476519,0.12246 0.726285,0.12246 0.426509,0 0.819835,-0.0709 1.173224,-0.21429 0.353579,-0.14019 0.655807,-0.32682 0.905857,-0.56128 l 0.0038,-0.003 c 0.248012,-0.23961 0.43945,-0.51653 0.570653,-0.83001 v -0.003 c 0.138654,-0.31392 0.20751,-0.64258 0.20751,-0.98306 0,-0.36734 -0.07451,-0.71335 -0.223489,-1.0307 -0.140163,-0.31451 -0.344127,-0.58928 -0.610551,-0.81639 -0.265782,-0.23305 -0.585159,-0.41476 -0.953735,-0.54085 h -0.0038 c -0.365519,-0.13402 -0.766259,-0.2007 -1.197163,-0.2007 z m 26.892377,0.36057 c 0.03773,0 0.05678,0.004 0.09187,0.034 0.0349,0.0298 0.03999,0.0426 0.03999,0.0748 0,0.0529 -0.01132,0.0744 -0.05584,0.10886 -0.05263,0.0403 -0.124506,0.0769 -0.215471,0.10886 -0.0011,3.5e-4 -0.0038,-3.4e-4 -0.0038,0 -0.0019,6.9e-4 -0.0019,0.003 -0.0038,0.003 -0.0898,0.0269 -0.186948,0.0474 -0.291326,0.0646 -0.116583,0.0125 -0.212113,0.0204 -0.283326,0.0204 -0.238599,0 -0.483536,-0.0115 -0.730266,-0.0306 l 0.0075,0.003 c -0.254464,-0.0271 -0.51238,-0.0408 -0.774163,-0.0408 h -0.06791 c -0.06206,0 -0.12394,0.009 -0.183552,0.0238 -0.093,0.0153 -0.182043,0.0612 -0.239448,0.12246 -0.118658,0.12636 -0.150916,0.27761 -0.183552,0.49323 -0.0315,0.20141 -0.05622,0.41694 -0.07187,0.64971 -0.01509,0.23031 -0.02415,0.45608 -0.03188,0.67351 v 0.003 0.63949 l 0.195531,0.017 c 0.156953,0.0134 0.313944,0.0239 0.470897,0.0306 0.164499,0.007 0.326376,0.0102 0.490818,0.0102 0.111301,0 0.239768,-0.004 0.379121,-0.0102 0.162046,-0.007 0.306775,-0.0294 0.43496,-0.0714 l 0.09583,-0.0306 0.03188,-0.0816 c 0.03131,-0.0763 0.02358,-0.0714 0.115639,-0.0714 0.03792,0 0.05678,0.004 0.09187,0.034 0.0349,0.0298 0.03999,0.0426 0.03999,0.0748 0,0.0962 -0.02792,0.13992 -0.08772,0.18369 -0.07263,0.0524 -0.168461,0.0958 -0.299305,0.12926 -0.127902,0.0282 -0.26284,0.0452 -0.407041,0.051 h -0.0038 c -0.150539,0.006 -0.280874,0.0102 -0.391081,0.0102 -0.157519,0 -0.313264,-0.004 -0.470859,-0.0102 -0.149784,-0.006 -0.301153,-0.0145 -0.450957,-0.0272 l -0.235429,-0.0204 v 0.65652 0.003 c 0.0075,0.21739 0.01698,0.44361 0.03188,0.68031 0.01509,0.23739 0.0366,0.46176 0.0598,0.67353 v 0.003 0.003 c 0.03245,0.21368 0.06074,0.36112 0.163556,0.48643 h 0.0038 v 0.003 c 0.06282,0.0715 0.140729,0.10284 0.223469,0.12927 l 0.01509,0.007 0.01509,0.003 c 0.0781,0.0147 0.158839,0.0234 0.243428,0.0306 0.08319,0.006 0.16016,0.0139 0.227468,0.0204 h 0.01132 0.195531 c 0.11979,0 0.249748,-0.004 0.391081,-0.0102 h 0.0038 0.0075 c 0.148464,-0.0134 0.293664,-0.031 0.434979,-0.051 0.154123,-0.0208 0.30287,-0.0465 0.442958,-0.0816 l 0.0038,-0.003 h 0.0038 c 0.150539,-0.0428 0.28195,-0.0916 0.399061,-0.15307 v -0.003 h 0.0038 c 0.03037,-0.0162 0.05093,-0.0204 0.0798,-0.0204 0.03773,0 0.05282,0.004 0.08772,0.034 l 0.0038,0.003 0.0038,0.003 c 0.02547,0.0193 0.03188,0.0257 0.03188,0.068 0,0.0453 -0.02358,0.0855 -0.159594,0.14968 -0.156199,0.0695 -0.347693,0.12716 -0.570672,0.17007 -0.229034,0.0441 -0.453881,0.0764 -0.682387,0.0953 -0.22496,0.0126 -0.39061,0.0204 -0.486857,0.0204 -0.121864,0 -0.252086,-0.008 -0.391062,-0.0204 -0.12394,-0.0117 -0.23973,-0.0328 -0.347183,-0.0612 h -0.0038 c -0.281232,-0.0805 -0.492836,-0.21396 -0.658448,-0.4116 -0.176195,-0.21709 -0.309907,-0.46327 -0.403041,-0.73814 -0.09583,-0.28251 -0.158085,-0.56871 -0.187514,-0.86402 -0.03018,-0.30981 -0.04792,-0.58461 -0.04792,-0.81978 0,-0.20914 0.01321,-0.45533 0.03584,-0.73815 v -0.003 c 0.02981,-0.28362 0.08187,-0.56286 0.155633,-0.8402 v -0.003 c 0.08112,-0.28191 0.188645,-0.54046 0.319244,-0.77557 v -0.003 c 0.12545,-0.23153 0.281497,-0.39444 0.466898,-0.50344 0.123563,-0.072 0.248672,-0.11489 0.379102,-0.13606 l 0.0038,-0.003 c 0.153557,-0.0297 0.306662,-0.0442 0.458918,-0.0442 0.212415,0 0.422207,0.0125 0.62651,0.0374 h 0.0038 l 0.0038,0.003 c 0.222583,0.0203 0.448561,0.0306 0.678388,0.0306 0.143182,0 0.254539,-0.009 0.363143,-0.0442 0.08131,-0.0237 0.154689,-0.051 0.21947,-0.0952 0.03452,-0.0198 0.06848,-0.0373 0.09583,-0.0544 -0.0018,9.4e-4 0.0014,-0.003 0.03188,-0.003 z m -7.418427,0.0578 c 0.102812,0 0.09904,0.005 0.115639,0.034 l 0.0038,0.007 0.0038,0.003 c 0.04754,0.0709 0.07584,0.14344 0.08772,0.22451 v 0.003 c 0.02226,0.13934 0.04509,0.32053 0.06772,0.54086 0.02264,0.40635 0.03188,0.95135 0.03188,1.63958 v 0.46942 l 0.634509,-0.0306 h 0.0038 c 0.04622,-0.003 0.05452,0.002 0.08376,0.0272 l 0.0038,0.003 0.0038,0.003 c 0.02603,0.0197 0.03509,0.0376 0.03999,0.0748 -0.0013,0.0312 -0.0094,0.0489 -0.03584,0.0748 -0.02528,0.0242 -0.04226,0.0339 -0.09583,0.0374 l -0.630491,0.0272 -0.0075,0.17009 c -0.0075,0.2679 -0.0132,0.53094 -0.02,0.78577 -0.0075,0.24658 -0.02075,0.48072 -0.03584,0.70073 v 0.003 c -0.0075,0.17597 -0.01698,0.333 -0.02396,0.46944 -0.0075,0.13364 -0.01698,0.24849 -0.03188,0.34695 v 0.003 c -0.01509,0.11727 -0.02849,0.20132 -0.03584,0.25172 -0.0094,0.053 -0.03075,0.0932 -0.06791,0.13267 -0.02,0.0214 -0.02886,0.0306 -0.09583,0.0306 0.0019,0 -0.04735,-0.008 -0.11979,-0.0306 -1.51e-4,-7.4e-4 -0.04018,-0.0226 -0.08772,-0.10886 v -0.003 c -0.05112,-0.0871 -0.107716,-0.25198 -0.151671,-0.47283 v -0.007 c -0.03754,-0.23084 -0.07357,-0.47439 -0.103755,-0.73137 -0.03018,-0.25652 -0.05263,-0.50474 -0.06791,-0.74155 v -0.007 c -0.0075,-0.2449 -0.01698,-0.43688 -0.02396,-0.57487 l -0.0075,-0.18369 -0.494836,0.017 c -0.05339,0 -0.07489,-0.0126 -0.103755,-0.034 -0.01981,-0.0189 -0.03245,-0.0352 -0.03584,-0.0714 -0.0038,-0.0423 0.0019,-0.0537 0.02396,-0.0748 0.03169,-0.0253 0.05754,-0.0375 0.107717,-0.0408 l 0.490837,-0.017 v -0.17689 c 0,-0.33213 0.0038,-0.66092 0.01132,-0.98646 0.0075,-0.31821 0.0398,-0.64069 0.09979,-0.96606 0.01509,-0.0832 0.03301,-0.17905 0.05584,-0.28914 0.02056,-0.0995 0.05169,-0.18998 0.09168,-0.27553 0.04377,-0.0843 0.0964,-0.15107 0.15167,-0.2041 0.04377,-0.0365 0.08168,-0.0544 0.163556,-0.0544 z m 18.544134,0 c 0.102812,0 0.09904,0.005 0.11564,0.034 l 0.0038,0.007 0.0038,0.003 c 0.04754,0.0709 0.07583,0.14344 0.08772,0.22451 v 0.003 c 0.02226,0.13934 0.04509,0.32053 0.06791,0.54086 0.02245,0.40635 0.03188,0.95135 0.03188,1.63958 v 0.46942 l 0.634509,-0.0306 c 0.04622,-0.003 0.05452,0.002 0.08376,0.0272 l 0.0038,0.003 0.0075,0.003 c 0.02603,0.0197 0.03113,0.0377 0.03584,0.0748 -0.0013,0.0312 -0.0057,0.0489 -0.03188,0.0748 -0.02528,0.0242 -0.04226,0.0339 -0.09583,0.0374 l -0.634509,0.0272 -0.0038,0.17009 c -0.0075,0.2679 -0.01698,0.53094 -0.02396,0.78577 -0.0075,0.24658 -0.01698,0.48072 -0.03188,0.70073 v 0.003 c -0.0075,0.17597 -0.01698,0.333 -0.02396,0.46944 -0.0075,0.13364 -0.01698,0.24849 -0.03188,0.34695 v 0.003 c -0.01509,0.11727 -0.02849,0.20132 -0.03584,0.25172 -0.0094,0.0537 -0.03037,0.0928 -0.06791,0.13267 -0.02,0.0214 -0.02886,0.0306 -0.09583,0.0306 0.0019,0 -0.05112,-0.008 -0.115829,-0.0272 5.7e-5,3e-5 -1.9e-5,-0.003 0,-0.003 0.0012,0 -0.04339,-0.0214 -0.09168,-0.10886 v -0.003 c -0.05093,-0.0869 -0.107906,-0.25261 -0.151671,-0.47283 -0.03792,-0.2327 -0.07338,-0.47883 -0.103755,-0.73816 -0.03018,-0.25652 -0.05282,-0.50474 -0.06791,-0.74155 v -0.007 c -0.0075,-0.2449 -0.01698,-0.43689 -0.02396,-0.57487 l -0.01132,-0.18369 -0.490836,0.017 c -0.05112,0 -0.0764,-0.0113 -0.103755,-0.0306 -0.0217,-0.0199 -0.03622,-0.0371 -0.03999,-0.0748 h 0.0038 c -0.0038,-0.0423 0.0019,-0.0537 0.02396,-0.0748 0.03169,-0.0253 0.05754,-0.0375 0.107716,-0.0408 l 0.486838,-0.017 v -0.1769 c 0,-0.33212 0.0038,-0.66091 0.01132,-0.98646 0.0075,-0.31821 0.03981,-0.64068 0.09979,-0.96605 h 0.0038 c 0.01509,-0.0832 0.03301,-0.17905 0.05584,-0.28914 0.02056,-0.0995 0.05169,-0.18998 0.09168,-0.27553 0.04377,-0.0842 0.09244,-0.15108 0.147709,-0.2041 0.0449,-0.0382 0.08395,-0.0544 0.167517,-0.0544 z m -26.700845,0.0306 c 0.05565,0 0.08282,0.009 0.123752,0.0442 0.0057,0.004 0.02075,0.0175 0.03584,0.0476 0.0132,0.0272 0.03056,0.0768 0.04395,0.13947 v 0.007 l 0.0038,0.007 c 0.01698,0.0522 0.03282,0.1354 0.03999,0.24492 v 0.003 c 0.0075,0.10539 0.0075,0.24421 0.0075,0.4184 v 0.15647 c -0.0075,0.26594 -0.01698,0.55942 -0.03188,0.87761 -0.01509,0.32038 -0.03263,0.64623 -0.04792,0.97967 -0.0075,0.15698 -0.01698,0.31612 -0.02396,0.47963 -0.0075,0.15677 -0.01321,0.309 -0.02,0.45921 l -0.01509,0.26192 0.295306,-0.0748 c 0.08961,-0.0229 0.193626,-0.0587 0.319245,-0.10544 0.13507,-0.0474 0.263538,-0.0987 0.391081,-0.15308 h 0.0038 c 0.136579,-0.0616 0.258897,-0.1266 0.367142,-0.1905 0.115828,-0.0684 0.209226,-0.13558 0.267367,-0.2347 l 0.02,-0.0306 0.0038,-0.0374 c 0.0038,-0.0412 0.0132,-0.0559 0.03999,-0.0782 0.0349,-0.0298 0.04999,-0.034 0.08772,-0.034 0.03792,0 0.05282,0.004 0.08772,0.034 0.0349,0.0298 0.03999,0.0426 0.03999,0.0748 0,0.092 -0.04263,0.1861 -0.159594,0.29935 -0.11696,0.11323 -0.309567,0.23658 -0.578632,0.36057 l -0.562673,0.25851 0.63449,0.0851 c 0.342316,0.0467 0.582462,0.16092 0.762203,0.34697 v 0.003 h 0.0038 c 0.188268,0.1882 0.279347,0.41306 0.279347,0.70414 0,0.0708 -0.0075,0.15015 -0.02792,0.23812 -0.01887,0.0731 -0.05188,0.14498 -0.09583,0.21431 l -0.0038,0.003 v 0.007 c -0.03245,0.0598 -0.07734,0.10503 -0.135636,0.14627 -0.03264,0.0222 -0.07716,0.0408 -0.163556,0.0408 -0.03339,0 -0.04924,-0.007 -0.07583,-0.0238 -0.02207,-0.0142 -0.02584,-0.0183 -0.03188,-0.0442 l -0.0038,-0.007 v -0.007 c -0.05508,-0.17446 -0.119224,-0.33125 -0.191551,-0.47621 l -0.0038,-0.003 c -0.06829,-0.15132 -0.156198,-0.28715 -0.271385,-0.4014 l -0.0038,-0.003 c -0.119224,-0.12386 -0.267367,-0.22326 -0.438959,-0.29255 -0.182798,-0.0738 -0.400306,-0.10853 -0.65045,-0.11564 l -0.223488,-0.007 v 0.36738 c 0,0.21755 0.0038,0.38076 0.01132,0.49323 0.0075,0.10458 0.01509,0.17745 0.04395,0.25172 l 0.01509,0.0408 0.03584,0.0306 c 0.0349,0.0298 0.0398,0.046 0.0398,0.0782 0,0.0388 -0.0094,0.0547 -0.03584,0.0782 -0.02886,0.0204 -0.0515,0.0306 -0.09187,0.0306 -0.08036,0 -0.1379,-0.0199 -0.207492,-0.0714 -0.06961,-0.0516 -0.143559,-0.1427 -0.211509,-0.27893 -0.08338,-0.16567 -0.15601,-0.3749 -0.20751,-0.6259 -0.05225,-0.261 -0.09357,-0.52864 -0.123751,-0.80279 v -0.007 c -0.02264,-0.27625 -0.04075,-0.54621 -0.05584,-0.80959 v -0.003 c -0.0075,-0.26518 -0.01132,-0.49044 -0.01132,-0.67692 0,-0.36149 0.0132,-0.69847 0.03584,-1.00688 v -0.003 c 0.03018,-0.31495 0.06716,-0.58863 0.111679,-0.82319 v -0.003 c 0.01509,-0.0854 0.03811,-0.18523 0.06791,-0.29934 0.02754,-0.10558 0.0647,-0.20366 0.111678,-0.29594 v -0.003 c 0.05093,-0.0914 0.111678,-0.16118 0.179591,-0.2143 l 0.0038,-0.003 v -0.003 c 0.05376,-0.0458 0.10168,-0.0612 0.191551,-0.0612 z m 29.621908,0 c 0.05301,0 0.07848,0.009 0.08772,0.0136 0.0094,0.005 0.01132,0.005 0.02,0.0238 v 0.003 c 0.03547,0.0757 0.05584,0.15555 0.05584,0.24492 v 0.0476 0.17688 c 0,0.0592 -0.0038,0.12955 -0.01132,0.2109 v 0.003 c -0.01509,0.18426 -0.02849,0.39325 -0.04395,0.6293 -0.01509,0.23568 -0.03245,0.48321 -0.04792,0.74496 -0.03056,0.37183 -0.06112,0.75536 -0.09168,1.15314 v 0.003 c -0.02301,0.39937 -0.04452,0.77555 -0.0598,1.12934 v 0.003 0.003 c 0,0.0733 -9.62e-4,0.14502 -0.0075,0.21089 v 0.007 0.1973 l 0.423,0.0544 c 0.06056,-0.16128 0.123374,-0.32168 0.191532,-0.48304 v -0.003 c 0.06621,-0.16316 0.139786,-0.31323 0.219489,-0.44901 0.08338,-0.14217 0.192267,-0.2784 0.327224,-0.4116 0.115828,-0.10703 0.236033,-0.15307 0.411021,-0.15307 0.241523,0 0.438016,0.0387 0.602571,0.10886 l 0.0038,0.003 h 0.0038 c 0.16997,0.0669 0.3057,0.15836 0.415001,0.27894 l 0.0038,0.003 v 0.003 c 0.117526,0.1169 0.210114,0.25689 0.271386,0.4252 0.06169,0.16349 0.09168,0.34222 0.09168,0.53406 0,0.11964 -0.02037,0.26202 -0.06395,0.42859 v 0.003 0.003 c -0.03452,0.15293 -0.09338,0.29425 -0.175629,0.4286 -0.07923,0.12329 -0.178648,0.22688 -0.303286,0.31635 -0.09866,0.07 -0.209434,0.10546 -0.367104,0.10546 -0.04735,0 -0.0664,-0.006 -0.09583,-0.0306 -0.02622,-0.026 -0.03188,-0.0461 -0.03188,-0.0816 0,-0.029 0.0057,-0.0427 0,-0.0272 0.05207,-0.13323 0.08734,-0.28655 0.111678,-0.45921 0.02415,-0.17092 0.03584,-0.34342 0.03584,-0.52046 0,-0.0715 -0.0038,-0.16229 -0.01132,-0.27552 -0.0075,-0.12448 -0.02358,-0.24996 -0.04792,-0.37419 -0.02434,-0.12406 -0.05735,-0.23757 -0.09979,-0.34016 -0.04603,-0.11791 -0.09979,-0.22303 -0.235449,-0.28912 l -0.05188,-0.0238 h -0.05584 c -4.91e-4,0 -0.05527,0.007 -0.05584,0.007 -6.61e-4,1.6e-4 -0.02094,0.004 -0.02792,0.007 -0.0132,0.005 -0.02452,0.007 -0.03188,0.0102 -0.01509,0.007 -0.02415,0.0138 -0.03584,0.0204 -0.02207,0.0126 -0.0498,0.0285 -0.0798,0.0476 -0.140918,0.0858 -0.18525,0.18947 -0.271366,0.35036 -7.36e-4,0.001 -0.0038,0.002 -0.0038,0.003 -6.04e-4,0.001 5.85e-4,0.002 0,0.003 -0.08923,0.14615 -0.168461,0.30817 -0.239448,0.48984 -0.06942,0.1709 -0.133749,0.34264 -0.195531,0.51364 -0.04528,0.1224 -0.09055,0.23799 -0.135636,0.34696 l -0.0038,0.003 v 0.003 c -0.03641,0.0991 -0.07697,0.19038 -0.11979,0.27555 v 0.003 c -0.01132,0.0248 -0.0349,0.0661 -0.06395,0.11567 -0.02264,0.0385 -0.04886,0.0741 -0.08376,0.10886 l -0.0075,0.003 -0.0038,0.007 c -0.01698,0.02 -0.04546,0.0427 -0.09168,0.0646 l -0.0038,0.003 -0.0038,0.003 c -0.02339,0.0125 -0.05226,0.0204 -0.103755,0.0204 -0.03773,0 -0.109415,-0.0142 -0.203511,-0.051 -0.04263,-0.0181 -0.127147,-0.0854 -0.21549,-0.2245 -0.0798,-0.13033 -0.149596,-0.29963 -0.20751,-0.50685 -0.05226,-0.22235 -0.09376,-0.448 -0.123751,-0.67692 v -0.003 c -0.02245,-0.2369 -0.04075,-0.46648 -0.05584,-0.69052 v -0.007 c -0.0075,-0.23061 -0.01132,-0.42938 -0.01132,-0.58848 v -0.45582 -0.003 c 0.0075,-0.20494 0.02113,-0.43235 0.04395,-0.68373 0.02264,-0.25045 0.05848,-0.50813 0.103755,-0.77216 0.04452,-0.25921 0.107528,-0.49325 0.187514,-0.70414 0.07885,-0.20786 0.172233,-0.36777 0.275347,-0.48303 0.100171,-0.1105 0.181477,-0.14286 0.299267,-0.14286 z m -40.939147,0.0204 c 0.365558,0 0.69282,0.0529 0.985673,0.15989 l 0.0038,0.003 c 0.302493,0.10194 0.55441,0.24648 0.762203,0.43541 l 0.0038,0.003 c 0.216282,0.18435 0.382479,0.40386 0.502816,0.66332 0.119601,0.25782 0.183552,0.541 0.183552,0.85381 0,0.2932 -0.0581,0.5666 -0.171668,0.82659 -0.113941,0.25485 -0.273554,0.47776 -0.478876,0.67692 -0.194154,0.18916 -0.43296,0.34151 -0.722286,0.45582 -0.275083,0.11136 -0.585839,0.16667 -0.941775,0.16667 -0.210849,0 -0.414001,-0.037 -0.61455,-0.11565 l -0.0075,-0.003 c -0.201436,-0.0896 -0.379593,-0.19681 -0.538715,-0.32656 l -0.367142,-0.29933 v 0.90483 0.003 c 0.0075,0.16749 0.01132,0.33946 0.01132,0.51364 0,0.16758 -0.0038,0.33587 -0.01132,0.50345 v 0.003 0.003 c 0,0.15353 -0.01132,0.29288 -0.03188,0.41841 -0.0094,0.0484 -0.02773,0.0831 -0.05584,0.11565 -0.0057,0.006 -0.0132,0.017 -0.07584,0.017 -0.0964,0 -0.134127,-0.0203 -0.199531,-0.12246 -0.07168,-0.13012 -0.124883,-0.28126 -0.159594,-0.45923 -0.03641,-0.18622 -0.05584,-0.37205 -0.05584,-0.55786 v -0.44222 -0.40137 c 0,-0.18532 0.0094,-0.38635 0.02396,-0.6055 v -0.003 c 0.01509,-0.22489 0.03339,-0.45233 0.05584,-0.68372 v -0.007 c 0.02962,-0.2311 0.07433,-0.43922 0.131675,-0.62249 0.05735,-0.18324 0.127335,-0.32927 0.20351,-0.43201 l 0.0038,-0.003 c 0.06735,-0.0958 0.09791,-0.10545 0.155633,-0.10545 0.03773,0 0.05678,0.004 0.09187,0.034 l 0.0038,0.003 0.0038,0.003 c 0.02547,0.0193 0.03188,0.0257 0.03188,0.068 0,0.19467 -0.01698,0.41334 -0.04792,0.65652 -0.03113,0.25248 -0.0481,0.4937 -0.05584,0.72113 l -0.0038,0.0544 0.03584,0.0476 c 0.06716,0.0931 0.146955,0.1898 0.243428,0.29254 0.09998,0.10663 0.209227,0.20293 0.327224,0.28914 l 0.0038,0.003 0.0038,0.003 c 0.126015,0.086 0.257841,0.15583 0.395062,0.21431 v 0.003 h 0.0038 c 0.155632,0.0624 0.318509,0.0953 0.482857,0.0953 0.279666,0 0.535526,-0.0751 0.730284,-0.22449 0.181477,-0.13997 0.327319,-0.30608 0.430979,-0.49665 v -0.003 c 0.107151,-0.1904 0.182043,-0.39152 0.22347,-0.6021 v -0.003 c 0.04735,-0.20989 0.07584,-0.40021 0.07584,-0.57149 0,-0.1962 -0.02754,-0.39947 -0.07584,-0.61228 -0.04999,-0.21988 -0.137334,-0.42507 -0.263387,-0.61229 l -0.0038,-0.003 c -0.121299,-0.19043 -0.28244,-0.35336 -0.482857,-0.47962 -0.217414,-0.13699 -0.489309,-0.2007 -0.786142,-0.2007 -0.223489,0 -0.440525,0.0438 -0.650469,0.12586 -0.193607,0.0722 -0.381196,0.16603 -0.554674,0.28573 v 0.003 h -0.0038 c -0.163744,0.1187 -0.312416,0.25214 -0.450938,0.39799 -0.136202,0.13681 -0.252842,0.27532 -0.351164,0.41499 -0.04867,0.0692 -0.0947,0.13774 -0.135636,0.2075 l -0.0038,0.007 -0.0038,0.007 c -0.02773,0.0593 -0.06093,0.12131 -0.09583,0.18709 -0.02547,0.0384 -0.05112,0.069 -0.07584,0.0918 0.0019,-10e-4 -0.0038,0.007 -0.05188,0.007 -0.03773,0 -0.05282,-0.004 -0.08772,-0.034 -0.0349,-0.0298 -0.03999,-0.0426 -0.03999,-0.0748 0,-0.0555 0.02358,-0.15145 0.08772,-0.26873 l 0.0038,-0.003 c 7.54e-4,-10e-4 -7.74e-4,-0.002 0,-0.003 0.07848,-0.12698 0.171478,-0.25221 0.279327,-0.38098 0.110923,-0.13228 0.225978,-0.25496 0.343203,-0.36737 0.119601,-0.11463 0.220149,-0.20369 0.295286,-0.26193 0.214358,-0.1578 0.452504,-0.29116 0.718306,-0.40139 0.25469,-0.10561 0.523001,-0.15647 0.814081,-0.15647 z m -0.03584,0.68373 c 0.191494,0 0.337468,0.0402 0.458918,0.11906 v 0.003 h 0.0038 c 0.133749,0.0814 0.241824,0.18534 0.327224,0.31975 v 0.003 0.003 c 0.09432,0.13785 0.165631,0.29455 0.20751,0.47282 0.0432,0.17799 0.06395,0.35064 0.06395,0.52044 0,0.14862 -0.02037,0.31401 -0.06395,0.49325 v 0.003 0.003 c -0.03509,0.1672 -0.09621,0.32126 -0.17959,0.46942 v 0.003 l -0.0038,0.003 c -0.0732,0.14164 -0.169404,0.25405 -0.291326,0.34697 -0.09715,0.0727 -0.208453,0.11225 -0.371122,0.11225 -0.07885,0 -0.160537,-0.0175 -0.247408,-0.051 -0.09187,-0.0392 -0.180534,-0.0864 -0.267368,-0.14286 -0.0881,-0.0635 -0.171667,-0.13554 -0.247408,-0.21771 -0.06565,-0.0712 -0.12394,-0.13759 -0.179591,-0.2041 0.0094,-0.20227 0.02471,-0.40538 0.05188,-0.6021 0.03169,-0.22953 0.04792,-0.46152 0.04792,-0.69732 0,-0.18578 -0.09753,-0.36962 -0.279347,-0.46262 -0.02169,-0.0111 -0.04924,-0.008 -0.07187,-0.017 0.120167,-0.0988 0.22794,-0.20658 0.371122,-0.28913 0.232109,-0.13384 0.449523,-0.1939 0.670408,-0.1939 z m 34.773759,1.95593 c -0.154312,0 -0.302758,0.0281 -0.430999,0.0918 -0.112055,0.0557 -0.212962,0.1296 -0.303285,0.2143 -0.06452,0.0612 -0.116772,0.13497 -0.167517,0.2109 -0.115263,-0.12539 -0.293552,-0.2041 -0.486857,-0.2041 -0.247163,0 -0.477405,0.0637 -0.650449,0.19389 h -0.0038 v 0.003 c -0.146578,0.11713 -0.2645,0.2621 -0.351164,0.432 v 0.003 c -0.07602,0.15853 -0.130542,0.33086 -0.163555,0.51364 v 0.003 l -0.0038,0.003 c -0.02377,0.1692 -0.03584,0.32267 -0.03584,0.46263 0,0.16713 0.01698,0.35198 0.04792,0.55447 l 0.0038,0.003 v 0.003 c 0.04075,0.20889 0.104887,0.40912 0.195531,0.59868 0.09564,0.19287 0.233788,0.36067 0.411021,0.49664 0.193418,0.1484 0.448901,0.22451 0.722305,0.22451 0.191324,0 0.378309,-0.0572 0.510795,-0.17008 0.111112,-0.0948 0.200587,-0.2086 0.271348,-0.33676 0.06772,-0.1228 0.126958,-0.26275 0.175629,-0.415 0.04678,-0.15275 0.08866,-0.30639 0.127713,-0.45921 0.03961,-0.15534 0.07206,-0.31048 0.09583,-0.46603 0.01321,-0.0656 0.02962,-0.1198 0.04395,-0.18029 0.0075,0.0498 0.01132,0.0968 0.02,0.15307 0.01698,0.10554 0.0498,0.20544 0.09583,0.29935 0.04867,0.0996 0.118658,0.18956 0.207491,0.26532 l 0.0038,0.003 0.0038,0.003 c 0.113753,0.0862 0.269443,0.12586 0.423019,0.12586 0.182231,0 0.348881,-0.031 0.490818,-0.10545 h 0.0038 c 0.131485,-0.0721 0.240013,-0.1658 0.319244,-0.27552 l 0.0038,-0.003 v -0.003 c 0.07131,-0.10632 0.124318,-0.21978 0.159594,-0.34016 0.03433,-0.11688 0.05584,-0.23106 0.05584,-0.34017 0,-0.21078 -0.04527,-0.41406 -0.131674,-0.60548 -0.08602,-0.19054 -0.208925,-0.35771 -0.367123,-0.50004 -0.158651,-0.14283 -0.351881,-0.25604 -0.574652,-0.33676 h -0.0038 c -0.219998,-0.082 -0.463143,-0.12246 -0.718286,-0.12246 z m -30.264415,0.0204 c -0.151294,0 -0.231148,0.12139 -0.347183,0.19731 -0.0038,0.002 -0.0094,10e-4 -0.01132,0.003 -9.24e-4,5.9e-4 9.24e-4,0.003 0,0.003 -0.0038,0.002 -0.0057,0.005 -0.0075,0.007 -0.08451,0.0599 -0.217263,0.0599 -0.259387,0.14968 l 0.163555,-0.11567 c -0.248672,0.0365 -0.476349,0.11218 -0.678388,0.22452 -0.194135,0.10169 -0.36701,0.22958 -0.510795,0.38098 v 0.003 h -0.0038 c -0.136957,0.15321 -0.243145,0.32626 -0.319245,0.51364 -0.07716,0.19002 -0.11564,0.39002 -0.11564,0.59869 0,0.26347 0.05603,0.51136 0.167518,0.73815 v 0.003 c 0.110546,0.21744 0.265726,0.41071 0.462917,0.57148 h 0.0038 c 0.202624,0.15831 0.434846,0.2848 0.694366,0.37756 l 0.0038,0.003 h 0.0038 c 0.264047,0.0871 0.545883,0.12927 0.845999,0.12927 0.312171,0 0.598308,-0.0687 0.830041,-0.21091 h 0.0038 v -0.003 c 0.212925,-0.13792 0.385705,-0.30677 0.514795,-0.50343 l 0.0038,-0.003 c 0.132241,-0.191 0.22911,-0.39742 0.287326,-0.61568 v -0.003 c 0.03113,-0.10629 0.0315,-0.19924 0.04792,-0.29935 0.02434,0.45875 0.176572,0.87176 0.530754,1.16675 0.379064,0.31578 0.888332,0.47284 1.476509,0.47284 0.283742,0 0.552675,-0.0672 0.786143,-0.19731 0.226091,-0.12203 0.422471,-0.27279 0.582612,-0.45241 0.166574,-0.18454 0.290665,-0.38721 0.375122,-0.60208 v -0.003 c 0.08998,-0.21732 0.139598,-0.42538 0.139598,-0.62589 0,-0.15089 -0.0764,-0.29771 -0.203511,-0.40139 -0.10451,-0.0942 -0.255615,-0.1348 -0.40704,-0.14968 0.05376,-0.0851 0.127713,-0.16445 0.127713,-0.26193 0,-0.16365 -0.04282,-0.31772 -0.131675,-0.4524 -0.08131,-0.12972 -0.188457,-0.24236 -0.319245,-0.32997 -0.127147,-0.0916 -0.274686,-0.16196 -0.434979,-0.2075 -0.15865,-0.0451 -0.320753,-0.068 -0.482857,-0.068 -0.316905,0 -0.614625,0.0633 -0.877918,0.19049 -0.253992,0.1227 -0.472274,0.28433 -0.650468,0.47964 -0.175818,0.19267 -0.311794,0.41005 -0.411021,0.6497 v 0.003 c -0.04584,0.11725 -0.04886,0.23542 -0.07187,0.35376 -0.0094,-0.17848 -0.02547,-0.35716 -0.0798,-0.53066 -0.06753,-0.21606 -0.178082,-0.41344 -0.331205,-0.58847 l -0.0038,-0.003 c -0.148087,-0.17682 -0.340392,-0.31875 -0.570653,-0.4218 -0.236863,-0.11648 -0.515907,-0.17009 -0.822041,-0.17009 z m 25.747091,0.017 c -0.363312,0 -0.720286,0.0724 -1.061489,0.21431 -0.329357,0.13336 -0.623474,0.31762 -0.877938,0.54765 -0.254464,0.22394 -0.462973,0.48264 -0.618512,0.76877 v 0.003 c -0.149218,0.28975 -0.227468,0.59119 -0.227468,0.89803 0,0.39755 0.156953,0.7411 0.462898,0.98646 v 0.003 c 0.302908,0.23544 0.701723,0.35038 1.157265,0.35038 0.184118,0 0.360237,-0.0301 0.518756,-0.0918 l 0.01132,-0.003 c 0.154689,-0.0525 0.295739,-0.12423 0.419019,-0.2143 0.09168,-0.0677 0.164687,-0.14849 0.239429,-0.22791 0.0075,0.0325 0.0094,0.0668 0.02,0.0987 v 0.0102 l 0.0038,0.007 c 0.04792,0.10631 0.11979,0.20074 0.211472,0.27894 l 0.0038,0.003 0.0038,0.003 c 0.124695,0.0957 0.292741,0.13608 0.466898,0.13608 0.250257,0 0.481499,-0.1132 0.63449,-0.29254 0.1379,-0.16172 0.244051,-0.34795 0.319245,-0.55447 0.0798,-0.20516 0.139409,-0.41698 0.171667,-0.6293 0.03132,-0.20711 0.04792,-0.3721 0.04792,-0.50343 0,-0.23854 -0.03962,-0.46106 -0.115639,-0.67013 -0.07565,-0.21511 -0.191475,-0.40826 -0.347183,-0.57146 l -0.0038,-0.003 c -0.15884,-0.17184 -0.361464,-0.30595 -0.602572,-0.40137 -0.242843,-0.0997 -0.521925,-0.14629 -0.83802,-0.14629 z m -14.03481,0.0204 c -0.318848,0 -0.618153,0.0692 -0.881917,0.2041 -0.253408,0.12319 -0.468784,0.28793 -0.63849,0.48983 -0.167894,0.19325 -0.29606,0.40991 -0.387063,0.6497 -0.09093,0.2327 -0.139597,0.4636 -0.139597,0.69393 0,0.1875 0.155255,0.30392 0.207491,0.46942 0.01698,0.0591 0.01132,0.12759 0.03584,0.18369 l 0.0038,0.003 v 0.003 c 0.02528,0.0508 0.07338,0.0881 0.103756,0.13606 0.08338,0.13912 0.06584,0.32901 0.195549,0.44222 0.132807,0.11316 0.358446,0.0973 0.522756,0.17007 0.06093,0.028 0.10583,0.0724 0.171667,0.0953 l 0.0038,0.003 c 0.06942,0.0219 0.154312,0.0153 0.227469,0.0306 0.191456,0.043 0.322093,0.1769 0.538715,0.1769 0.36501,0 0.699101,-0.0767 0.981692,-0.23472 l 0.0038,-0.003 c 0.267726,-0.1569 0.491214,-0.35874 0.666428,-0.59868 l 0.0038,-0.007 c 0.03546,-0.046 0.07414,-0.0995 0.111678,-0.16328 l 0.0038,-0.007 c 0.04678,-0.0735 0.08829,-0.14727 0.127713,-0.22112 l 0.0038,-0.003 v -0.003 c 0.0415,-0.0848 0.07395,-0.16773 0.09979,-0.24832 0.03226,-0.0791 0.05584,-0.15723 0.05584,-0.23472 0,-0.15306 -0.07697,-0.30435 -0.207491,-0.40818 -0.125638,-0.10551 -0.295796,-0.1667 -0.470897,-0.1667 -0.02056,0 -0.03546,0.0157 -0.05584,0.017 0.06074,-0.12429 0.123752,-0.24689 0.123752,-0.39119 0,-0.17442 -0.0398,-0.33806 -0.127713,-0.47962 -0.08338,-0.13408 -0.197927,-0.24845 -0.339204,-0.33676 -0.134127,-0.0838 -0.285949,-0.14915 -0.450938,-0.1939 h -0.0038 c -0.158651,-0.0447 -0.323659,-0.068 -0.490837,-0.068 z m 18.552134,0.40818 c 0.18889,0 0.355936,0.0306 0.502796,0.0851 0.157142,0.0558 0.282931,0.13185 0.383102,0.22791 h 0.0038 v 0.003 c 0.110357,0.0997 0.19587,0.21511 0.255388,0.35038 v 0.003 c 0.06565,0.13415 0.09979,0.27495 0.09979,0.4286 0,0.19748 -0.05376,0.34188 -0.151671,0.45581 -0.0964,0.10635 -0.182986,0.14629 -0.331186,0.14629 -0.06678,0 -0.07565,-0.009 -0.09583,-0.0306 -0.03603,-0.0384 -0.06112,-0.0828 -0.07187,-0.14628 v -0.003 -0.007 c -0.0057,-0.0272 -0.01321,-0.0588 -0.02,-0.0918 -7.54e-4,-0.004 -0.0038,-0.006 -0.0038,-0.0102 -0.0015,-0.039 -0.0012,-0.0779 -0.0075,-0.11906 -0.01509,-0.10488 -0.03716,-0.21711 -0.0598,-0.34016 v -0.007 c -0.01698,-0.13097 -0.04603,-0.25253 -0.08772,-0.36736 v -0.003 c -0.05358,-0.15154 -0.119979,-0.29262 -0.311265,-0.34696 l -0.127713,-0.034 -0.09168,0.0782 c -0.03962,0.0338 -0.05056,0.0531 -0.06791,0.0782 -0.01698,0.0251 -0.03547,0.0536 -0.05584,0.0884 -0.05395,0.0845 -0.09715,0.19107 -0.151671,0.34355 -0.0564,0.13872 -0.104321,0.29148 -0.143747,0.45923 -0.03811,0.15634 -0.07357,0.31687 -0.111679,0.47963 -0.03829,0.14396 -0.07282,0.28016 -0.103755,0.41158 -0.02962,0.12608 -0.06357,0.24188 -0.09979,0.34697 v 0.003 c -0.03245,0.0993 -0.08848,0.20125 -0.163556,0.30615 -0.04924,0.0687 -0.08376,0.0885 -0.203529,0.0885 -0.157897,0 -0.266217,-0.0398 -0.363162,-0.11567 -0.116771,-0.0995 -0.208661,-0.21506 -0.275328,-0.35718 -0.06999,-0.14919 -0.119224,-0.30692 -0.147709,-0.47621 -0.02962,-0.18357 -0.04395,-0.34051 -0.04395,-0.46602 0,-0.10739 0.0094,-0.23338 0.03188,-0.37759 0.02056,-0.14079 0.05848,-0.27049 0.111679,-0.39118 l 0.0038,-0.003 c 4.53e-4,-9.9e-4 -4.15e-4,-0.002 0,-0.003 0.05905,-0.11529 0.131864,-0.2077 0.215509,-0.27894 0.07414,-0.0632 0.156387,-0.0952 0.295287,-0.0952 0.06074,0 0.06961,0.0117 0.07584,0.017 l 0.0038,0.003 0.0038,0.003 c 0.03301,0.0246 0.05207,0.0482 0.06395,0.0816 l 0.0038,0.007 v 0.007 c 0.01962,0.0417 0.03188,0.0918 0.03188,0.14968 v 0.007 0.007 c 0.0075,0.0746 0.01132,0.13851 0.01132,0.1905 v 0.017 l 0.0038,0.0136 c 0.0057,0.0277 0.0075,0.0617 0.0075,0.0987 v 0.13606 l 0.427,0.0442 c 0.02999,-0.10901 0.06621,-0.23305 0.103755,-0.36738 0.04207,-0.13166 0.0947,-0.25231 0.163555,-0.36397 l 0.0038,-0.003 c 0.06697,-0.1142 0.141861,-0.2044 0.227469,-0.27213 l 0.0038,-0.003 h 0.0038 c 0.06904,-0.0588 0.134504,-0.0851 0.247408,-0.0851 z m -30.264415,0.0204 c 0.222375,0 0.400023,0.0393 0.546694,0.11228 l 0.0038,0.003 h 0.0075 c 0.162047,0.0718 0.287685,0.16926 0.391062,0.29594 h 0.0038 v 0.003 c 0.106962,0.12548 0.188457,0.268 0.243428,0.43201 0.05565,0.16626 0.08376,0.33739 0.08376,0.51706 0,0.16049 -0.02547,0.33291 -0.07584,0.51703 -0.04905,0.17915 -0.127147,0.34598 -0.231449,0.50004 -0.09942,0.14016 -0.221111,0.2551 -0.371122,0.35037 -0.137711,0.0816 -0.301569,0.12587 -0.510795,0.12587 -0.235939,0 -0.450316,-0.0353 -0.654449,-0.0987 h -0.0038 c -0.195361,-0.0699 -0.367708,-0.1627 -0.514776,-0.28234 -0.146955,-0.11952 -0.25801,-0.26136 -0.339203,-0.42861 -0.08055,-0.16596 -0.11979,-0.34716 -0.11979,-0.54766 0,-0.1632 0.02754,-0.31309 0.08772,-0.45582 0.06131,-0.14534 0.147898,-0.27319 0.255388,-0.38777 0.106019,-0.11303 0.229676,-0.20532 0.375122,-0.27894 0.151859,-0.0732 0.320414,-0.11968 0.510795,-0.14287 l 0.151671,-0.0204 0.02792,-0.12927 c 0.0075,-0.035 0.01509,-0.0433 0.03188,-0.0544 h 0.0038 c 0.03528,-0.0233 0.05735,-0.0306 0.09583,-0.0306 z m 25.747091,0.0204 c 0.243598,0 0.444788,0.0335 0.610551,0.0987 0.172045,0.0677 0.305964,0.1573 0.41502,0.27213 v 0.003 h 0.0038 c 0.108848,0.10918 0.189476,0.24045 0.243428,0.40138 0.05508,0.16458 0.08376,0.34691 0.08376,0.54767 0,0.0816 -0.0132,0.22291 -0.04395,0.40818 v 0.003 0.003 c -0.02151,0.177 -0.06678,0.35221 -0.131674,0.53066 v 0.003 c -0.05622,0.16792 -0.132429,0.31492 -0.22745,0.44221 -0.07697,0.0965 -0.132618,0.12246 -0.219489,0.12246 -0.05905,0 -0.08263,-0.0111 -0.09979,-0.0204 -0.02641,-0.0248 -0.05112,-0.0513 -0.06791,-0.0816 v -0.003 c -7.92e-4,-0.001 -0.0038,-0.002 -0.0038,-0.003 -0.02094,-0.0465 -0.03433,-0.0941 -0.03999,-0.14628 -0.0075,-0.0669 -0.0075,-0.13129 -0.0075,-0.19048 v -0.30956 -0.0136 c 0.0075,-0.10071 0.01321,-0.20625 0.02,-0.31295 l -0.419019,-0.0748 c -0.05791,0.12951 -0.13092,0.26678 -0.219471,0.41158 v 0.003 c -0.07734,0.13178 -0.173742,0.25653 -0.287326,0.37757 -0.106773,0.10743 -0.224488,0.19889 -0.355144,0.27213 -0.0011,5.4e-4 -0.0038,-5.2e-4 -0.0038,0 -0.0015,8.7e-4 -0.0019,0.002 -0.0038,0.003 -0.116017,0.0579 -0.248371,0.0884 -0.411021,0.0884 -0.340845,0 -0.588008,-0.0764 -0.782143,-0.22451 l -0.0038,-0.003 c -0.189004,-0.15226 -0.283327,-0.35228 -0.283327,-0.6463 0,-0.24095 0.06169,-0.47501 0.187514,-0.70755 v -0.003 c 0.128467,-0.24334 0.294343,-0.45238 0.498835,-0.63269 0.213603,-0.18814 0.452674,-0.33751 0.722267,-0.45243 0.272178,-0.11301 0.545167,-0.16667 0.82606,-0.16667 z m -21.928133,0.0204 c 0.104887,0 0.204228,0.0126 0.303285,0.0442 l 0.0075,0.003 h 0.0038 c 0.09546,0.0254 0.180911,0.0658 0.259388,0.12248 l 0.0038,0.003 0.0038,0.003 c 0.07301,0.0479 0.123941,0.10431 0.163556,0.1769 l 0.0038,0.007 0.0075,0.007 c 0.0415,0.0619 0.0598,0.13083 0.0598,0.2211 0,0.0322 -0.0057,0.0451 -0.0398,0.0748 -0.03207,0.0273 -0.05018,0.034 -0.09979,0.034 -0.03415,0 -0.04792,-0.007 -0.06791,-0.0204 -0.02452,-0.0223 -0.04018,-0.0433 -0.04792,-0.0714 l -0.0038,-0.0102 c -0.01132,-0.0706 -0.03226,-0.13834 -0.0798,-0.20071 -0.04905,-0.0642 -0.130919,-0.11749 -0.21947,-0.13947 -0.08621,-0.022 -0.153746,-0.0374 -0.235448,-0.0374 -0.09715,0 -0.196418,0.0337 -0.267367,0.0851 -0.07093,0.0514 -0.119979,0.11544 -0.159594,0.18708 v 0.003 c -0.06074,0.11827 -0.110924,0.25567 -0.151671,0.4082 v 0.003 c -0.03188,0.14281 -0.05584,0.28897 -0.07187,0.43201 -0.01509,0.13973 -0.02396,0.23703 -0.02396,0.30954 0,0.0657 0.0038,0.14381 0.01132,0.23811 v 0.0102 0.007 c 0.01698,0.0902 0.03509,0.17763 0.0598,0.26192 l 0.0038,0.007 0.0038,0.007 c 0.03754,0.096 0.08961,0.18177 0.159594,0.25853 0.08753,0.0958 0.235637,0.15988 0.379102,0.15988 0.168083,0 0.32996,-0.0546 0.466897,-0.14628 0.127713,-0.0856 0.238279,-0.19165 0.327225,-0.31295 0.08564,-0.1169 0.152237,-0.23949 0.203511,-0.37078 0.05093,-0.13031 0.0798,-0.25057 0.0798,-0.36396 0,-0.0322 0.0057,-0.0451 0.03999,-0.0748 0.0349,-0.0298 0.04999,-0.034 0.08772,-0.034 0.04961,0 0.05716,0.005 0.0798,0.0272 l 0.0038,0.003 0.0038,0.003 c 0.0349,0.0298 0.0398,0.0426 0.0398,0.0748 0,0.15137 -0.03528,0.31126 -0.111678,0.48302 v 0.003 c -0.06942,0.16569 -0.166008,0.32021 -0.291307,0.46262 -0.122997,0.13978 -0.26882,0.25414 -0.438959,0.34697 -0.149784,0.0791 -0.307228,0.11906 -0.490837,0.11906 -0.470595,0 -0.821287,-0.11385 -1.093427,-0.34015 -0.271064,-0.22544 -0.403041,-0.51822 -0.403041,-0.91845 0,-0.18991 0.0332,-0.37905 0.103755,-0.57146 0.07678,-0.18867 0.182986,-0.35495 0.319245,-0.50004 0.136579,-0.14559 0.29906,-0.26377 0.490837,-0.35717 0.180911,-0.0881 0.379215,-0.12927 0.61455,-0.12927 z m 7.893323,0 c 0.113942,0 0.223508,0.0153 0.331224,0.0476 h 0.0038 l 0.0038,0.003 c 0.103378,0.0259 0.190909,0.0639 0.267367,0.11906 l 0.0038,0.003 0.0038,0.003 c 0.07527,0.0493 0.135825,0.10728 0.183552,0.18369 0.04339,0.0695 0.06395,0.15008 0.06395,0.24832 0,0.13385 -0.03339,0.23155 -0.09979,0.31635 v 0.003 c -0.06772,0.0892 -0.159594,0.1656 -0.275346,0.23132 -0.115074,0.0592 -0.243146,0.10531 -0.387082,0.13945 -0.154124,0.0299 -0.303135,0.0442 -0.446939,0.0442 h -0.21549 v 0.33336 c 0,0.0495 0.0038,0.11356 0.01132,0.20071 0.0075,0.0831 0.01981,0.16967 0.03584,0.25851 l 0.0038,0.007 v 0.0102 c 0.02641,0.0902 0.06169,0.17315 0.107716,0.25172 l 0.0038,0.003 v 0.003 c 0.06508,0.1 0.209887,0.18369 0.351164,0.18369 0.172799,0 0.339826,-0.0378 0.486837,-0.11227 0.14205,-0.0682 0.265613,-0.15336 0.367142,-0.25512 0.103,-0.10252 0.189966,-0.21502 0.259387,-0.33336 h 0.0038 v -0.003 c 0.06659,-0.1206 0.117149,-0.23943 0.151671,-0.35718 l 0.0038,-0.003 v -0.007 c 0.0075,-0.0351 0.01509,-0.0399 0.03188,-0.051 0.0232,-0.0149 0.04282,-0.0238 0.08772,-0.0238 0.03773,0 0.05282,0.004 0.08772,0.034 l 0.0038,0.003 0.0038,0.003 c 0.02547,0.0193 0.03188,0.0257 0.03188,0.068 0,0.0106 -0.0057,0.0556 -0.03188,0.11567 l -0.0038,0.003 v 0.003 c -0.01981,0.0562 -0.04886,0.11833 -0.08376,0.18369 v 0.003 l -0.0038,0.003 c -0.02603,0.0555 -0.05924,0.1125 -0.09979,0.17009 l -0.0038,0.007 -0.0038,0.007 c -0.03584,0.0613 -0.06207,0.10723 -0.0798,0.13266 -7.74e-4,0.001 -0.0038,-10e-4 -0.0038,0 -3.78e-4,5.1e-4 3.39e-4,0.003 0,0.003 -0.323905,0.43566 -0.698988,0.6259 -1.193202,0.6259 -0.207038,0 -0.384969,-0.0324 -0.550694,-0.0782 -0.03603,-0.0108 -0.07357,-0.0211 -0.107716,-0.034 -0.154501,-0.0599 -0.293457,-0.13188 -0.40306,-0.22452 l -0.0038,-0.003 c -0.117338,-0.10599 -0.207303,-0.22775 -0.279346,-0.36398 -0.0094,-0.0185 -0.01509,-0.0388 -0.02396,-0.0578 -0.05773,-0.14519 -0.09168,-0.30353 -0.09168,-0.48643 0,-0.18878 0.03452,-0.374 0.103755,-0.55786 v -0.003 c 0.07734,-0.19095 0.1811,-0.35738 0.311246,-0.50345 v -0.003 c 0.128279,-0.1496 0.28576,-0.26845 0.474896,-0.36057 h 0.0038 c 0.181477,-0.0939 0.378008,-0.13947 0.602572,-0.13947 z m -11.560648,0.15989 -0.07583,0.17687 c -0.0057,0.0136 -0.01321,0.0227 -0.03999,0.0374 h -0.0038 l -0.0075,0.003 c -0.01886,0.0109 -0.02698,0.017 -0.05584,0.017 -0.156199,0 -0.30487,0.0943 -0.375103,0.2041 -0.05603,0.0809 -0.09772,0.17094 -0.131674,0.27213 l -0.0038,0.007 v 0.007 c -0.02396,0.0956 -0.04377,0.18998 -0.0598,0.28575 l -0.0038,0.007 v 0.007 c -0.0075,0.0937 -0.01132,0.16315 -0.01132,0.21771 0,0.14605 0.01132,0.28724 0.03584,0.4218 l 0.0038,0.007 v 0.003 c 0.03301,0.12683 0.07527,0.24276 0.127713,0.34695 0.05131,0.10225 0.110924,0.19004 0.179591,0.26533 l 0.0075,0.0102 0.0075,0.007 c 0.08998,0.0768 0.213943,0.13266 0.347183,0.13268 0.157708,-10e-6 0.313114,-0.056 0.43098,-0.14628 h 0.0038 c 0.110923,-0.0805 0.204076,-0.17859 0.275366,-0.29254 v -0.003 l 0.0038,-0.003 c 0.06923,-0.11801 0.117714,-0.2474 0.15167,-0.38779 0.04245,-0.14478 0.06376,-0.2927 0.06376,-0.4388 0,-0.19256 -0.04471,-0.38955 -0.127713,-0.58848 -0.08583,-0.23087 -0.275687,-0.41348 -0.534735,-0.50345 z m 25.595458,0.0374 c -0.236467,0 -0.449693,0.1158 -0.62653,0.28915 -0.16016,0.15807 -0.301097,0.34653 -0.42298,0.56125 -0.119224,0.20987 -0.219376,0.41813 -0.299287,0.6293 v 0.003 0.003 c -0.07206,0.2113 -0.111678,0.37672 -0.111678,0.52046 0,0.045 0.0038,0.0961 0.01132,0.15307 0.0057,0.045 0.01698,0.0938 0.06395,0.14626 0.04622,0.0525 0.142427,0.0918 0.21947,0.0919 0.214282,-2e-5 0.409549,-0.10275 0.550694,-0.25513 0.134693,-0.14363 0.252653,-0.30789 0.351164,-0.48984 0.09451,-0.18127 0.171667,-0.36119 0.235448,-0.53744 0.06829,-0.17468 0.119224,-0.30522 0.151671,-0.4014 0.03377,-0.0863 0.04377,-0.0946 0.135636,-0.10207 l 0.251427,-0.017 -0.04792,-0.17349 0.01132,-0.003 -0.02,-0.017 -0.0038,-0.017 c -0.01924,-0.066 -0.05414,-0.12668 -0.09583,-0.18708 -0.05791,-0.11105 -0.213452,-0.19729 -0.355163,-0.19729 z m -13.990893,0.0204 c -0.103,0 -0.192362,0.0486 -0.247427,0.0986 -0.05376,0.0489 -0.08734,0.10107 -0.11979,0.16328 -0.06735,0.1231 -0.110735,0.2691 -0.135636,0.43881 l -0.02792,0.20749 h 0.243428 c 0.07301,0 0.148276,-0.009 0.22745,-0.0238 0.08885,-0.0151 0.173743,-0.0394 0.251389,-0.0714 0.08942,-0.0339 0.172233,-0.0787 0.239448,-0.13608 l 0.0038,-0.003 0.0075,-0.007 c 0.07583,-0.0755 0.119789,-0.17565 0.119789,-0.27553 0,-0.11357 -0.07659,-0.23012 -0.17959,-0.29593 -0.10998,-0.0703 -0.244786,-0.0952 -0.383082,-0.0952 z m -7.877383,0.54426 c 0.0432,0.0981 0.09621,0.18957 0.171668,0.26192 l 0.0038,0.003 0.0038,0.007 c 0.102058,0.0871 0.243164,0.10827 0.387082,0.11567 -0.05244,0.0823 -0.127713,0.15707 -0.127713,0.25171 0,0.0565 -0.01698,0.13193 -0.05584,0.2211 l -0.0038,0.003 v 0.003 c -0.03188,0.0868 -0.0815,0.17388 -0.147709,0.25851 v 0.003 c -0.05791,0.0769 -0.125261,0.13774 -0.199531,0.19048 -0.04037,0.0276 -0.06735,0.0339 -0.09583,0.0374 -0.02226,-0.0379 -0.04433,-0.0783 -0.0598,-0.12587 -3.59e-4,-0.001 3.58e-4,-0.002 0,-0.003 -0.0132,-0.0666 -0.02151,-0.13342 -0.02792,-0.1939 -0.0075,-0.0689 -0.01132,-0.12071 -0.01132,-0.14968 0,-0.0194 0.0057,-0.10018 0.01132,-0.21429 v -0.0102 c 0.01509,-0.11514 0.03528,-0.23508 0.06376,-0.35717 0.02603,-0.11616 0.05735,-0.21432 0.08772,-0.30274 z m -3.603468,0.0102 c 0.04226,0.0425 0.08848,0.0736 0.115639,0.15307 v 0.003 l 0.0038,0.003 c 0.05395,0.13229 0.0798,0.26227 0.0798,0.39119 0,0.0469 -0.0094,0.13272 -0.03188,0.2449 -0.02075,0.099 -0.05093,0.19625 -0.09168,0.28915 -0.0383,0.0872 -0.08772,0.15973 -0.14771,0.2211 -0.0449,0.0459 -0.0664,0.051 -0.111678,0.051 0.02735,0 0.03735,0.0214 0.0038,-0.0272 l 0.0075,0.0102 c -0.03735,-0.0637 -0.07225,-0.14066 -0.09979,-0.2347 -0.02886,-0.0984 -0.04961,-0.19517 -0.06395,-0.28575 -0.0057,-0.0923 -0.0075,-0.16347 -0.0075,-0.19048 0,-0.25221 0.03735,-0.42271 0.04792,-0.44222 0.04339,-0.0692 0.08942,-0.10863 0.07187,-0.0987 -0.0057,0.003 0.01698,-0.0102 0.05188,-0.0204 l 0.02396,-0.007 0.02396,-0.007 0.01132,-0.003 c 0.02283,-0.006 0.04226,-0.0157 0.06376,-0.0238 0.01886,-0.006 0.03037,-0.02 0.04792,-0.0272 z m 12.023546,0.847 c -0.0132,0.0238 -0.01886,0.0476 -0.03188,0.0714 l -0.0038,0.003 v 0.003 c -0.04716,0.086 -0.104509,0.16384 -0.171478,0.23811 v 0.003 c -0.04999,0.0568 -0.111867,0.10358 -0.183552,0.14287 -10e-4,4.7e-4 -0.0038,-4.5e-4 -0.0038,0 -0.03754,0.0168 -0.09206,0.0197 -0.139598,0.0272 -0.0094,-0.0307 -0.02377,-0.0597 -0.03188,-0.0953 v -0.007 c -8.68e-4,-0.004 -0.0038,-0.006 -0.0038,-0.0102 l -0.02,-0.20069 c -0.0011,-0.01 8.86e-4,-0.008 0,-0.017 0.107528,-0.0153 0.213716,-0.0256 0.323225,-0.051 l 0.0038,-0.003 h 0.0075 c 0.09357,-0.0254 0.169215,-0.0705 0.255388,-0.10545 z m 4.79667,0.38098 c -0.198945,0 -0.392722,0.0728 -0.534734,0.1939 -0.139032,0.11846 -0.211509,0.28165 -0.211509,0.4524 0,0.16634 0.07451,0.32698 0.207491,0.44901 l 0.0038,0.007 0.0075,0.003 c 0.143181,0.11334 0.331619,0.17689 0.526773,0.17689 0.200304,0 0.39176,-0.0618 0.530735,-0.18029 0.14205,-0.12106 0.227469,-0.28623 0.227469,-0.45582 0,-0.17118 -0.08376,-0.33556 -0.227469,-0.4524 -0.137145,-0.12254 -0.329922,-0.1939 -0.530735,-0.1939 z m 5.67457,0.0374 0.01132,0.007 c -0.0038,-0.003 -0.0094,-8.7e-4 -0.01132,-0.003 -9.24e-4,-7.1e-4 9.43e-4,-0.003 0,-0.003 z m -5.67457,0.43201 c 0.06206,0 0.09414,0.0123 0.14356,0.0544 0.04942,0.0422 0.06395,0.0696 0.06395,0.12246 0,0.0511 -0.01509,0.0824 -0.0598,0.12245 -0.04603,0.0346 -0.083,0.0476 -0.14771,0.0476 -0.06188,0 -0.100359,-0.0166 -0.143747,-0.0476 -0.03641,-0.0369 -0.05584,-0.0698 -0.05584,-0.12245 0,-0.0552 0.01509,-0.0867 0.05584,-0.12586 0.04697,-0.0389 0.08357,-0.051 0.143747,-0.051 z" style="fill:#008fd0" />
    <path d="m 45.91428,57.086836 -2.100812,74.098614 h 32.234477 c 1.053528,0 2.083193,-0.0802 3.076638,-0.23298 0.993992,-0.15298 1.952104,-0.37979 2.865072,-0.67064 0.912516,-0.2907 1.779965,-0.64609 2.591178,-1.05958 0.810384,-0.41306 1.566795,-0.88298 2.255804,-1.40367 0.689047,-0.5207 1.310502,-1.09053 1.857083,-1.70294 0.547128,-0.61302 1.018139,-1.26972 1.402824,-1.9593 0.384856,-0.68992 0.682784,-1.41384 0.885163,-2.16498 0.205567,-0.76279 0.290042,-1.53417 0.310001,-2.30632 l 1.312161,-50.743943 c 7.6e-5,-0.006 7.6e-5,-0.01151 0,-0.01754 V 58.011908 c -9.4e-5,-0.511244 -0.548864,-0.925006 -1.225403,-0.925066 H 76.940898 Z" style="fill:#000000;fill-opacity:0.012" />
  </g>
</svg>
